<?xml version="1.0" encoding="UTF-8"?>
<!--Generator: Apple Native CoreSVG 341-->
<!DOCTYPE svg
PUBLIC "-//W3C//DTD SVG 1.1//EN"
       "http://www.w3.org/Graphics/SVG/1.1/DTD/svg11.dtd">
<svg version="1.1" xmlns="http://www.w3.org/2000/svg" xmlns:xlink="http://www.w3.org/1999/xlink" viewBox="0 0 3300 2200">
 <!--glyph: "1020C8", point size: 100.0, font version: "21.0d6e2", template writer version: "138.0.0"-->
 <style>.defaults {-sfsymbols-draw-reverses-motion-groups:true}

.monochrome-0 {-sfsymbols-motion-group:1;-sfsymbols-layer-tags:brain.filled.head.profile}
.monochrome-1 {-sfsymbols-motion-group:0;-sfsymbols-layer-tags:brain.filled.head.profile}

.multicolor-0:tintColor {-sfsymbols-motion-group:1;-sfsymbols-layer-tags:brain.filled.head.profile}
.multicolor-1:tintColor {-sfsymbols-motion-group:0;-sfsymbols-layer-tags:brain.filled.head.profile}

.hierarchical-0:secondary {-sfsymbols-motion-group:1;-sfsymbols-layer-tags:brain.filled.head.profile}
.hierarchical-1:primary {-sfsymbols-motion-group:0;-sfsymbols-layer-tags:brain.filled.head.profile}

.SFSymbolsPreviewWireframe {fill:none;opacity:1.0;stroke:black;stroke-width:0.5}
</style>
 <g id="Notes">
  <rect height="2200" id="artboard" style="fill:white;opacity:1" width="3300" x="0" y="0"/>
  <line style="fill:none;stroke:black;opacity:1;stroke-width:0.5;" x1="263" x2="3036" y1="292" y2="292"/>
  <text style="stroke:none;fill:black;font-family:sans-serif;font-size:13;font-weight:bold;" transform="matrix(1 0 0 1 263 322)">Weight/Scale Variations</text>
  <text style="stroke:none;fill:black;font-family:sans-serif;font-size:13;text-anchor:middle;" transform="matrix(1 0 0 1 559.711 322)">Ultralight</text>
  <text style="stroke:none;fill:black;font-family:sans-serif;font-size:13;text-anchor:middle;" transform="matrix(1 0 0 1 856.422 322)">Thin</text>
  <text style="stroke:none;fill:black;font-family:sans-serif;font-size:13;text-anchor:middle;" transform="matrix(1 0 0 1 1153.13 322)">Light</text>
  <text style="stroke:none;fill:black;font-family:sans-serif;font-size:13;text-anchor:middle;" transform="matrix(1 0 0 1 1449.84 322)">Regular</text>
  <text style="stroke:none;fill:black;font-family:sans-serif;font-size:13;text-anchor:middle;" transform="matrix(1 0 0 1 1746.56 322)">Medium</text>
  <text style="stroke:none;fill:black;font-family:sans-serif;font-size:13;text-anchor:middle;" transform="matrix(1 0 0 1 2043.27 322)">Semibold</text>
  <text style="stroke:none;fill:black;font-family:sans-serif;font-size:13;text-anchor:middle;" transform="matrix(1 0 0 1 2339.98 322)">Bold</text>
  <text style="stroke:none;fill:black;font-family:sans-serif;font-size:13;text-anchor:middle;" transform="matrix(1 0 0 1 2636.69 322)">Heavy</text>
  <text style="stroke:none;fill:black;font-family:sans-serif;font-size:13;text-anchor:middle;" transform="matrix(1 0 0 1 2933.4 322)">Black</text>
  <line style="fill:none;stroke:black;opacity:1;stroke-width:0.5;" x1="263" x2="3036" y1="1903" y2="1903"/>
  <g transform="matrix(0.2 0 0 0.2 263 1933)">
   <path d="m46.2402 4.15039c21.7773 0 39.4531-17.627 39.4531-39.4043s-17.6758-39.4043-39.4531-39.4043c-21.7285 0-39.4043 17.627-39.4043 39.4043s17.6758 39.4043 39.4043 39.4043Zm0-7.42188c-17.6758 0-31.9336-14.3066-31.9336-31.9824s14.2578-31.9824 31.9336-31.9824 31.9824 14.3066 31.9824 31.9824-14.3066 31.9824-31.9824 31.9824Zm3.61328-17.7734v-28.4668c0-2.24609-1.46484-3.75977-3.71094-3.75977-2.14844 0-3.61328 1.51367-3.61328 3.75977v28.4668c0 2.19727 1.46484 3.71094 3.61328 3.71094 2.24609 0 3.71094-1.51367 3.71094-3.71094Zm-17.8223-10.5957h28.418c2.19727 0 3.71094-1.46484 3.71094-3.61328 0-2.19727-1.51367-3.71094-3.71094-3.71094h-28.418c-2.24609 0-3.75977 1.51367-3.75977 3.71094 0 2.14844 1.51367 3.61328 3.75977 3.61328Z"/>
  </g>
  <g transform="matrix(0.2 0 0 0.2 281.506 1933)">
   <path d="m58.5449 14.5508c27.4902 0 49.8047-22.3145 49.8047-49.8047s-22.3145-49.8047-49.8047-49.8047-49.8047 22.3145-49.8047 49.8047 22.3145 49.8047 49.8047 49.8047Zm0-8.30078c-22.9492 0-41.5039-18.5547-41.5039-41.5039s18.5547-41.5039 41.5039-41.5039 41.5039 18.5547 41.5039 41.5039-18.5547 41.5039-41.5039 41.5039Zm4.05273-23.0957v-36.9141c0-2.49023-1.70898-4.19922-4.15039-4.19922-2.39258 0-4.05273 1.70898-4.05273 4.19922v36.9141c0 2.44141 1.66016 4.15039 4.05273 4.15039 2.44141 0 4.15039-1.66016 4.15039-4.15039Zm-22.5586-14.4043h36.9629c2.44141 0 4.15039-1.61133 4.15039-4.00391 0-2.44141-1.70898-4.15039-4.15039-4.15039h-36.9629c-2.49023 0-4.15039 1.70898-4.15039 4.15039 0 2.39258 1.66016 4.00391 4.15039 4.00391Z"/>
  </g>
  <g transform="matrix(0.2 0 0 0.2 304.924 1933)">
   <path d="m74.8535 28.3203c35.1074 0 63.623-28.4668 63.623-63.5742s-28.5156-63.623-63.623-63.623-63.5742 28.5156-63.5742 63.623 28.4668 63.5742 63.5742 63.5742Zm0-9.08203c-30.127 0-54.4922-24.3652-54.4922-54.4922s24.3652-54.4922 54.4922-54.4922 54.4922 24.3652 54.4922 54.4922-24.3652 54.4922-54.4922 54.4922Zm4.44336-30.3223v-48.4863c0-2.73438-1.85547-4.63867-4.54102-4.63867-2.58789 0-4.44336 1.9043-4.44336 4.63867v48.4863c0 2.68555 1.85547 4.58984 4.44336 4.58984 2.68555 0 4.54102-1.85547 4.54102-4.58984Zm-28.7109-19.7754h48.4863c2.68555 0 4.58984-1.80664 4.58984-4.39453 0-2.73438-1.85547-4.58984-4.58984-4.58984h-48.4863c-2.73438 0-4.58984 1.85547-4.58984 4.58984 0 2.58789 1.85547 4.39453 4.58984 4.39453Z"/>
  </g>
  <text style="stroke:none;fill:black;font-family:sans-serif;font-size:13;font-weight:bold;" transform="matrix(1 0 0 1 263 1953)">Design Variations</text>
  <text style="stroke:none;fill:black;font-family:sans-serif;font-size:13;" transform="matrix(1 0 0 1 263 1971)">Symbols are supported in up to nine weights and three scales.</text>
  <text style="stroke:none;fill:black;font-family:sans-serif;font-size:13;" transform="matrix(1 0 0 1 263 1989)">For optimal layout with text and other symbols, vertically align</text>
  <text style="stroke:none;fill:black;font-family:sans-serif;font-size:13;" transform="matrix(1 0 0 1 263 2007)">symbols with the adjacent text.</text>
  <line style="fill:none;stroke:#00AEEF;stroke-width:0.5;opacity:1.0;" x1="776" x2="776" y1="1919" y2="1933"/>
  <g transform="matrix(0.2 0 0 0.2 776 1933)">
   <path d="m16.5527 0.78125c2.58789 0 3.85742-0.976562 4.78516-3.71094l20.5566-57.5195h0.244141l20.6055 57.5195c0.927734 2.73438 2.19727 3.71094 4.73633 3.71094 2.58789 0 4.24805-1.5625 4.24805-4.00391 0-0.830078-0.146484-1.61133-0.537109-2.63672l-22.9004-60.9863c-1.12305-2.97852-3.125-4.49219-6.25-4.49219-3.02734 0-5.07812 1.46484-6.15234 4.44336l-22.9004 61.084c-0.390625 1.02539-0.537109 1.80664-0.537109 2.63672 0 2.44141 1.5625 3.95508 4.10156 3.95508Zm10.2051-20.9473h30.6641c2.00195 0 3.66211-1.66016 3.66211-3.66211 0-2.05078-1.66016-3.66211-3.66211-3.66211h-30.6641c-2.00195 0-3.66211 1.61133-3.66211 3.66211 0 2.00195 1.66016 3.66211 3.66211 3.66211Z"/>
  </g>
  <line style="fill:none;stroke:#00AEEF;stroke-width:0.5;opacity:1.0;" x1="792.836" x2="792.836" y1="1919" y2="1933"/>
  <text style="stroke:none;fill:black;font-family:sans-serif;font-size:13;font-weight:bold;" transform="matrix(1 0 0 1 776 1953)">Margins</text>
  <text style="stroke:none;fill:black;font-family:sans-serif;font-size:13;" transform="matrix(1 0 0 1 776 1971)">Leading and trailing margins on the left and right side of each symbol</text>
  <text style="stroke:none;fill:black;font-family:sans-serif;font-size:13;" transform="matrix(1 0 0 1 776 1989)">can be adjusted by modifying the x-location of the margin guidelines.</text>
  <text style="stroke:none;fill:black;font-family:sans-serif;font-size:13;" transform="matrix(1 0 0 1 776 2007)">Modifications are automatically applied proportionally to all</text>
  <text style="stroke:none;fill:black;font-family:sans-serif;font-size:13;" transform="matrix(1 0 0 1 776 2025)">scales and weights.</text>
  <g transform="matrix(0.2 0 0 0.2 1289 1933)">
   <path d="m14.209 13.1348 7.86133 7.86133c4.29688 4.39453 9.32617 4.10156 13.8672-1.02539l60.6934-68.2129-4.88281-4.88281-60.2539 67.6758c-1.80664 1.95312-3.4668 2.44141-5.81055 0.0976562l-5.17578-5.12695c-2.29492-2.29492-1.80664-3.95508 0.195312-5.81055l67.4805-62.1582-4.88281-4.83398-68.0664 62.5977c-4.98047 4.58984-5.32227 9.47266-1.02539 13.8184Zm44.873-97.4609c-2.05078 2.00195-2.24609 4.88281-1.07422 6.78711 1.12305 1.80664 3.4668 3.02734 6.5918 2.24609 5.85938-1.66016 12.5977-2.39258 18.8965 0.927734l-2.68555 7.12891c-1.61133 4.00391-0.732422 6.88477 1.70898 9.42383l10.2539 10.3027c2.34375 2.39258 4.54102 2.44141 7.08008 1.95312l4.44336-0.732422 2.58789 2.53906-0.195312 2.24609c-0.0976562 2.29492 0.537109 4.29688 2.7832 6.49414l3.36914 3.32031c2.29492 2.29492 5.51758 2.49023 7.8125 0.195312l12.9883-13.0371c2.29492-2.34375 2.14844-5.37109-0.195312-7.66602l-3.41797-3.41797c-2.19727-2.19727-4.05273-3.02734-6.34766-2.88086l-2.34375 0.244141-2.44141-2.44141 1.02539-4.6875c0.634766-2.73438-0.244141-4.98047-2.88086-7.61719l-11.2793-11.1816c-12.9395-12.8418-35.5957-11.0352-46.6797-0.146484Zm7.08008 2.05078c8.78906-6.39648 25.9766-5.66406 33.6914 1.95312l12.3047 12.207c1.02539 1.02539 1.2207 1.80664 0.927734 3.32031l-1.46484 6.64062 6.73828 6.68945 4.39453-0.244141c1.12305-0.0488281 1.51367 0.0488281 2.34375 0.878906l2.53906 2.49023-10.8398 10.8398-2.49023-2.49023c-0.830078-0.878906-0.976562-1.2207-0.927734-2.39258l0.292969-4.3457-6.68945-6.73828-6.83594 1.17188c-1.41602 0.292969-2.05078 0.195312-3.17383-0.878906l-8.93555-8.88672c-1.07422-1.02539-1.17188-1.70898-0.488281-3.36914l4.58984-11.4746c-6.10352-6.34766-17.041-7.51953-25.5859-4.58984-0.683594 0.244141-0.927734-0.390625-0.390625-0.78125Z"/>
  </g>
  <text style="stroke:none;fill:black;font-family:sans-serif;font-size:13;font-weight:bold;" transform="matrix(1 0 0 1 1289 1953)">Exporting</text>
  <text style="stroke:none;fill:black;font-family:sans-serif;font-size:13;" transform="matrix(1 0 0 1 1289 1971)">Symbols should be outlined when exporting to ensure the</text>
  <text style="stroke:none;fill:black;font-family:sans-serif;font-size:13;" transform="matrix(1 0 0 1 1289 1989)">design is preserved when submitting to Xcode.</text>
  <text id="template-version" style="stroke:none;fill:black;font-family:sans-serif;font-size:13;text-anchor:end;" transform="matrix(1 0 0 1 3036 1933)">Template v.7.0</text>
  <text style="stroke:none;fill:black;font-family:sans-serif;font-size:13;text-anchor:end;" transform="matrix(1 0 0 1 3036 1951)">Requires Xcode 17 or greater</text>
  <text id="descriptive-name" style="stroke:none;fill:black;font-family:sans-serif;font-size:13;text-anchor:end;" transform="matrix(1 0 0 1 3036 1969)">Generated from brain.filled.head.profile</text>
  <text style="stroke:none;fill:black;font-family:sans-serif;font-size:13;text-anchor:end;" transform="matrix(1 0 0 1 3036 1987)">Typeset at 100.0 points</text>
  <text style="stroke:none;fill:black;font-family:sans-serif;font-size:13;" transform="matrix(1 0 0 1 263 726)">Small</text>
  <text style="stroke:none;fill:black;font-family:sans-serif;font-size:13;" transform="matrix(1 0 0 1 263 1156)">Medium</text>
  <text style="stroke:none;fill:black;font-family:sans-serif;font-size:13;" transform="matrix(1 0 0 1 263 1586)">Large</text>
 </g>
 <g id="Guides">
  <g id="H-reference" style="fill:#27AAE1;stroke:none;" transform="matrix(1 0 0 1 339 696)">
   <path d="M0.993654 0L3.63775 0L29.3281-67.1323L30.0303-67.1323L30.0303-70.459L28.1226-70.459ZM11.6885-24.4799L46.9815-24.4799L46.2315-26.7285L12.4385-26.7285ZM55.1196 0L57.7637 0L30.6382-70.459L29.4326-70.459L29.4326-67.1323Z"/>
  </g>
  <line id="Baseline-S" style="fill:none;stroke:#27AAE1;opacity:1;stroke-width:0.5;" x1="263" x2="3036" y1="696" y2="696"/>
  <line id="Capline-S" style="fill:none;stroke:#27AAE1;opacity:1;stroke-width:0.5;" x1="263" x2="3036" y1="625.541" y2="625.541"/>
  <g id="H-reference" style="fill:#27AAE1;stroke:none;" transform="matrix(1 0 0 1 339 1126)">
   <path d="M0.993654 0L3.63775 0L29.3281-67.1323L30.0303-67.1323L30.0303-70.459L28.1226-70.459ZM11.6885-24.4799L46.9815-24.4799L46.2315-26.7285L12.4385-26.7285ZM55.1196 0L57.7637 0L30.6382-70.459L29.4326-70.459L29.4326-67.1323Z"/>
  </g>
  <line id="Baseline-M" style="fill:none;stroke:#27AAE1;opacity:1;stroke-width:0.5;" x1="263" x2="3036" y1="1126" y2="1126"/>
  <line id="Capline-M" style="fill:none;stroke:#27AAE1;opacity:1;stroke-width:0.5;" x1="263" x2="3036" y1="1055.54" y2="1055.54"/>
  <g id="H-reference" style="fill:#27AAE1;stroke:none;" transform="matrix(1 0 0 1 339 1556)">
   <path d="M0.993654 0L3.63775 0L29.3281-67.1323L30.0303-67.1323L30.0303-70.459L28.1226-70.459ZM11.6885-24.4799L46.9815-24.4799L46.2315-26.7285L12.4385-26.7285ZM55.1196 0L57.7637 0L30.6382-70.459L29.4326-70.459L29.4326-67.1323Z"/>
  </g>
  <line id="Baseline-L" style="fill:none;stroke:#27AAE1;opacity:1;stroke-width:0.5;" x1="263" x2="3036" y1="1556" y2="1556"/>
  <line id="Capline-L" style="fill:none;stroke:#27AAE1;opacity:1;stroke-width:0.5;" x1="263" x2="3036" y1="1485.54" y2="1485.54"/>
  <line id="right-margin-Black-S" style="fill:none;stroke:#00AEEF;stroke-width:0.5;opacity:1.0;" x1="2985.01" x2="2985.01" y1="600.785" y2="720.121"/>
  <line id="left-margin-Black-S" style="fill:none;stroke:#00AEEF;stroke-width:0.5;opacity:1.0;" x1="2881.79" x2="2881.79" y1="600.785" y2="720.121"/>
  <line id="right-margin-Regular-S" style="fill:none;stroke:#00AEEF;stroke-width:0.5;opacity:1.0;" x1="1498.5" x2="1498.5" y1="600.785" y2="720.121"/>
  <line id="left-margin-Regular-S" style="fill:none;stroke:#00AEEF;stroke-width:0.5;opacity:1.0;" x1="1401.19" x2="1401.19" y1="600.785" y2="720.121"/>
  <line id="right-margin-Ultralight-S" style="fill:none;stroke:#00AEEF;stroke-width:0.5;opacity:1.0;" x1="604.213" x2="604.213" y1="600.785" y2="720.121"/>
  <line id="left-margin-Ultralight-S" style="fill:none;stroke:#00AEEF;stroke-width:0.5;opacity:1.0;" x1="515.209" x2="515.209" y1="600.785" y2="720.121"/>
 </g>
 <g id="Symbols">
  <g id="Black-S" transform="matrix(1 0 0 1 2881.79 696)">
   <path class="monochrome-0 multicolor-0:tintColor hierarchical-0:secondary SFSymbolsPreviewWireframe" d="M58.1543 13.5254C74.0723 13.4766 83.9355 7.42188 83.9355-2.97852L83.9355-20.7031C89.9414-26.4648 93.457-35.4004 93.457-44.9707C93.457-68.4082 78.1738-84.0332 55.4199-84.0332C32.7148-84.0332 17.5293-68.7012 17.5293-45.8008C17.5293-44.873 17.5293-43.9941 17.5781-43.1641L11.6699-32.666C10.4492-30.4688 9.76562-28.1738 9.76562-26.0254C9.76562-22.3633 12.0605-19.1895 17.4805-18.5059L17.4805-15.5762C17.4805-5.56641 24.0234-0.244141 35.0586-1.41602L39.8926-1.9043L32.8125-5.46875L32.8125-2.97852C32.8125 7.42188 42.3828 13.5254 58.1543 13.5254ZM58.1543 1.31836C49.5117 1.31836 44.6289-1.02539 44.6289-4.29688L44.6289-10.9863C44.6289-13.1348 42.9688-14.5996 40.7715-14.3555L33.8379-13.623C31.0059-13.3301 29.6875-14.502 29.6875-16.5039L29.6875-24.9512C29.6875-26.4648 28.6621-27.5391 27.0508-27.5391L24.9512-27.5391C24.0234-27.5391 23.6328-27.9785 23.6328-28.5645C23.6328-28.8574 23.7305-29.1504 23.8281-29.3945L30.2246-40.8203C29.8828-42.5293 29.6875-44.0918 29.6875-45.8984C29.6875-61.4258 39.9902-71.8262 55.4199-71.8262C70.8496-71.8262 81.2012-61.084 81.2012-44.9707C81.2012-36.6211 77.5391-29.5898 71.582-26.9043L71.6309-4.29688C71.6309-1.02539 66.6992 1.31836 58.1543 1.31836Z"/>
   <path class="monochrome-1 multicolor-1:tintColor hierarchical-1:primary SFSymbolsPreviewWireframe" d="M42.334-40.918C45.3125-40.918 47.4121-42.7246 47.4121-45.2148C47.4121-45.9961 46.9727-46.875 46.3379-47.5098C45.7031-48.0469 45.459-48.6816 45.459-49.3164C45.459-50.4395 46.4355-51.416 47.6562-51.416C48.2422-51.416 48.9258-51.2207 49.5605-50.6836C50.0488-50.3418 50.4395-49.8535 50.7812-49.3164C51.6602-49.8535 51.9043-50.7812 51.9043-52.0996C51.9043-53.3691 52.8809-54.3945 54.1016-54.3945C55.3711-54.3945 56.4941-53.3691 56.4941-52.0996C56.4941-48.5352 54.9805-46.0938 51.8555-44.9219C51.8555-44.5801 51.8555-44.2871 51.8555-43.9941C51.6113-41.9434 50.7324-40.1367 49.4629-38.8184C50.9277-38.0859 52.832-37.7441 54.6875-37.7441C54.9805-37.7441 55.4688-37.7441 56.3477-37.8418C56.3477-38.2812 56.3477-38.6719 56.3477-39.1113C56.3477-50.0488 69.9219-49.8047 69.9219-58.252C69.9219-62.1582 66.3086-65.4297 62.3535-65.3809C62.0117-65.3809 61.6211-65.332 61.2793-65.332C59.8145-66.6992 58.252-67.5781 56.4453-67.5781C53.6621-67.5781 51.4648-65.6738 51.4648-63.3301C51.4648-62.0117 50.4883-61.1328 49.2188-61.1328C47.9492-61.1328 47.0215-62.1094 47.0215-63.5254C47.0215-64.209 47.1191-64.8926 47.2168-65.5273C46.8262-65.5762 46.4844-65.5762 46.0938-65.5762C41.6016-65.5762 39.5996-62.793 39.5996-60.791C39.5996-59.668 40.2344-58.7402 41.5039-58.7402C42.8223-58.7402 43.7988-57.7148 43.7988-56.543C43.7988-55.2734 42.8223-54.1992 41.5039-54.1992C39.502-54.1992 37.7441-54.8828 36.4746-56.0547C35.2539-54.248 34.5703-52.0508 34.5703-49.5117C34.5703-44.5312 37.9883-40.918 42.334-40.918ZM68.9453-31.2012C72.8027-31.2012 75.6348-35.0098 75.6348-41.0156C75.6348-41.3086 75.6348-41.4551 75.6348-41.748C74.6094-41.4551 73.3887-41.3574 72.0703-41.4551C70.8008-41.5527 69.8242-42.5293 69.8242-43.7012C69.8242-45.0195 70.9473-46.0938 72.168-45.8984C75.3906-45.6543 77.4414-47.7539 77.4414-50.5859C77.4414-53.2715 76.2695-55.2246 74.3652-56.7383C72.5098-47.7051 60.5469-45.7031 60.5469-39.2578C60.5469-37.5977 61.5723-36.2793 63.2812-36.2793L63.4277-36.2793C64.1602-33.252 66.3086-31.2012 68.9453-31.2012Z"/>
  </g>
  <g id="Regular-S" transform="matrix(1 0 0 1 1401.19 696)">
   <path class="monochrome-0 multicolor-0:tintColor hierarchical-0:secondary SFSymbolsPreviewWireframe" d="M54.5898 10.9863C69.1406 10.9863 78.0273 5.81055 78.0273-3.22266L78.0273-21.8262C84.0332-27.1973 87.5488-35.7422 87.5488-45.0684C87.5488-67.0898 73.1934-81.7871 51.8555-81.7871C30.5664-81.7871 16.3086-67.3828 16.3086-45.8984C16.3086-44.7266 16.3574-43.75 16.4551-42.8223L11.7676-34.4727C10.4492-32.0801 9.76562-29.6875 9.76562-27.5391C9.76562-23.4863 12.207-20.166 16.3086-18.9453L16.3086-11.6699C16.3086-4.3457 21.582-0.78125 28.125-1.51367L36.5234-2.34375L31.543-7.66602L31.543-3.22266C31.543 5.76172 40.2344 10.9863 54.5898 10.9863ZM54.5898 3.95508C44.2871 3.95508 38.1836 0.78125 38.1836-4.44336L38.1836-8.98438C38.1836-9.47266 37.9395-9.7168 37.5-9.66797L27.1484-8.49609C24.707-8.25195 23.3398-9.22852 23.3398-12.1094L23.3398-24.1699C23.3398-24.5117 23.0957-24.7559 22.6074-24.7559L20.459-24.7559C18.1641-24.7559 16.8457-25.8789 16.8457-27.6367C16.8457-28.6133 17.1875-29.7363 17.8711-30.957L23.7305-41.4062C23.4863-42.9199 23.3398-44.4824 23.3398-45.9961C23.3398-63.2324 34.7168-74.707 51.8555-74.707C68.9941-74.707 80.5176-62.8906 80.5176-45.0684C80.5176-36.5234 76.9043-29.0039 70.9473-25.293L70.9473-4.44336C70.9473 0.78125 64.8438 3.95508 54.5898 3.95508Z"/>
   <path class="monochrome-1 multicolor-1:tintColor hierarchical-1:primary SFSymbolsPreviewWireframe" d="M39.3066-40.5762C43.6523-40.5762 46.6797-43.5059 46.6797-47.6074C46.6797-49.0723 46.2891-50.1465 45.6055-50.8789C44.873-51.5625 44.5801-52.2949 44.5801-52.7832C44.5801-53.8574 45.5078-54.6387 46.582-54.6387C47.0215-54.6387 47.6074-54.541 48.0469-54.1016C48.1445-54.0039 48.2422-53.8574 48.291-53.7598C51.2695-54.1016 52.7832-55.8105 52.7832-58.5938C52.7832-59.668 53.6621-60.5957 54.7363-60.5957C55.8105-60.5957 56.7383-59.6191 56.7383-58.5938C56.7871-54.1504 54.541-51.3672 50.2441-50.3906C50.5371-49.5117 50.6348-48.5352 50.6348-47.5586C50.6348-43.8477 48.8281-40.8203 45.8496-39.1113C47.5098-38.3301 49.4141-37.9395 51.4648-37.9395C52.4414-37.9395 53.4668-38.0371 54.4922-38.2324C54.2969-38.7207 54.248-39.2578 54.248-39.6973C54.248-49.6094 68.457-51.2695 68.457-60.0098C68.457-64.4043 65.1367-67.7734 60.9863-67.7734C59.375-67.7734 59.082-67.7246 58.7402-67.6758C57.1289-69.3848 54.834-70.3613 52.8809-70.3613C49.3164-70.3613 46.875-68.1152 46.875-64.7949C46.875-63.623 46.0449-62.8418 44.873-62.8418C43.7012-62.8418 42.8711-63.7207 42.9199-64.8926C42.9199-66.4551 43.4082-67.4316 43.7012-68.3594C43.1152-68.457 42.5293-68.5059 41.9922-68.5059C37.4023-68.5059 33.8379-65.6738 33.8379-62.207C33.8379-59.9609 35.3516-58.1543 37.3535-58.1543C38.4766-58.1543 39.3555-57.2754 39.3555-56.25C39.3555-55.127 38.4277-54.1992 37.3535-54.1992C34.2773-54.1992 31.8848-55.6152 30.7129-57.8613C29.5898-56.0547 28.9551-53.9551 28.9551-51.8066C28.9551-45.5078 33.0078-40.5762 39.3066-40.5762ZM67.6758-30.7129C71.7773-30.7129 74.7559-35.3027 74.7559-41.5039C74.7559-41.9434 74.7559-42.4316 74.7559-42.9688C73.2422-42.2852 71.4355-41.9922 69.3848-42.1387C68.3105-42.2852 67.4805-43.1152 67.4805-44.1895C67.4805-45.2637 68.4082-46.2402 69.4824-46.1426C73.4863-45.8008 76.123-47.998 76.123-51.5625C76.123-54.834 74.6094-57.5684 72.0215-59.2773C70.8496-48.6328 57.7148-47.2168 57.7148-39.8438C57.7148-37.8418 59.0332-36.4258 61.3281-36.4258L61.8652-36.4258C62.5-33.0566 64.8438-30.7129 67.6758-30.7129Z"/>
  </g>
  <g id="Ultralight-S" transform="matrix(1 0 0 1 515.209 696)">
   <path class="monochrome-0 multicolor-0:tintColor hierarchical-0:secondary SFSymbolsPreviewWireframe" d="M50.1851 6.71781C62.3292 6.71781 70.0806 2.3594 70.0806-4.53954L70.0806-23.4609C75.8594-28.0601 79.2388-35.8784 79.2388-44.6143C79.2388-64.229 66.5635-77.2461 47.4961-77.2461C28.6138-77.2461 15.9907-64.4766 15.9907-45.3535C15.9907-44.0454 15.9941-42.978 16.1372-41.9141L11.3589-33.2012C10.2222-31.3081 9.76562-29.5967 9.76562-27.7661C9.76562-24.3037 12.1162-21.3921 16.0815-20.9433L16.0815-13.4863C16.0815-8.43259 19.2207-5.59469 24.356-6.10006L31.7554-6.93014L30.1807-8.9829L30.1807-4.53954C30.1807 2.31057 38.0093 6.71781 50.1851 6.71781ZM50.1851 4.5C39.5191 4.5 32.5074 0.69043 32.5074-4.85205L32.5074-8.48487C32.5074-9.06397 32.127-9.30811 31.5967-9.30469L24.1514-8.40527C20.4839-7.97949 18.2994-10.0005 18.2994-13.8804L18.2994-22.5806C18.2994-22.9678 18.1006-23.1665 17.7032-23.1665L17.5073-23.1665C14.168-23.1665 12.1231-25.0161 12.1231-27.8638C12.1231-29.1128 12.5557-30.7353 13.2847-32.0923L18.4175-41.4062C18.2188-42.8291 18.2085-44.1646 18.2085-45.4512C18.2085-63.187 29.9034-75.0249 47.4961-75.0249C65.2251-75.0249 77.021-62.8906 77.021-44.6143C77.021-36.2056 73.5894-28.7314 67.7686-24.5664L67.8594-4.85205C67.8594 0.69043 60.8023 4.5 50.1851 4.5Z"/>
   <path class="monochrome-1 multicolor-1:tintColor hierarchical-1:primary SFSymbolsPreviewWireframe" d="M33.9483-40.6216C39.2022-40.6216 42.8653-43.6421 42.8653-48.0161C42.8653-49.6172 42.2022-51.2817 41.0645-52.4228C40.7862-52.6523 40.6748-52.9307 40.6748-53.1465C40.6748-53.6304 41.1031-54.0483 41.6324-54.0483C41.8902-54.0483 42.1128-53.9961 42.4615-53.7383C43.3311-53.0957 44.0191-51.4507 44.2495-50.5811C47.2281-51.4678 48.6509-53.4038 48.6509-56.6865C48.6509-57.2158 49.0303-57.6895 49.5596-57.6895C50.0435-57.6895 50.4717-57.2124 50.4717-56.7319C50.5206-52.5156 48.5015-49.8687 44.6587-48.8467C44.7247-48.6035 44.7315-48.3081 44.7315-48.0127C44.7315-44.1201 42.5616-41.1382 39.0835-39.7017C41.107-38.1484 43.7832-37.2583 46.8785-37.2583C47.7642-37.2583 48.9712-37.356 50.0874-37.5059C49.7105-38.312 49.5254-39.167 49.5254-40.0605C49.5254-49.1099 64.688-51.0879 64.688-59.9189C64.688-64.041 61.2315-67.2739 56.8086-67.2739C55.606-67.2739 54.7227-67.1797 53.836-66.9492C52.5879-69.1123 50.2476-70.4521 47.4771-70.4521C42.9136-70.4521 39.4732-67.979 39.2916-63.3872C39.2916-62.8965 38.961-62.5239 38.3794-62.5239C37.7525-62.5239 37.3311-62.9487 37.3799-63.4849C37.4707-65.229 37.959-66.7959 38.7969-68.0415C38.0293-68.2754 37.0801-68.3696 36.2251-68.3696C31.6807-68.3696 28.2979-65.2197 28.2979-60.9356C28.2979-57.9175 30.5835-55.9746 33.6753-55.9746C34.2535-55.9746 34.6783-55.5498 34.6783-54.9785C34.6783-54.4912 34.25-54.1084 33.6753-54.1084C30.2359-54.1084 27.6617-55.8877 26.7622-58.6787C25.0489-56.5996 24.0054-53.8643 24.0054-51.1255C24.0054-45.0083 28.1036-40.6216 33.9483-40.6216ZM63.5889-28.3516C67.4634-28.3516 69.8516-33.1685 69.8516-41.0952C69.8516-41.8525 69.8516-42.7041 69.8062-43.4683C68.3379-42.6938 66.5767-42.3101 64.6621-42.3203C64.1328-42.3306 63.7115-42.7974 63.7115-43.2813C63.7115-43.7197 64.1851-44.1968 64.669-44.19C69.4449-44.166 72.6719-46.9082 72.6719-51.3355C72.6719-55.3789 70.2954-58.5674 66.5269-59.8223C66.127-49.4502 51.3575-47.9888 51.3575-40.0254C51.3575-37.0698 53.7203-34.9727 57.1504-34.9727L58.2325-34.9727C58.6402-30.9224 60.7115-28.3516 63.5889-28.3516Z"/>
  </g>
 </g>
</svg>
