<?xml version="1.0" encoding="UTF-8"?>
<!--Generator: Apple Native CoreSVG 341-->
<!DOCTYPE svg
PUBLIC "-//W3C//DTD SVG 1.1//EN"
       "http://www.w3.org/Graphics/SVG/1.1/DTD/svg11.dtd">
<svg version="1.1" xmlns="http://www.w3.org/2000/svg" xmlns:xlink="http://www.w3.org/1999/xlink" viewBox="0 0 3300 2200">
 <!--glyph: "101525", point size: 100.0, font version: "21.0d6e2", template writer version: "138.0.0"-->
 <style>.defaults {-sfsymbols-variable-value-mode:color;-sfsymbols-draw-reverses-motion-groups:true}

.monochrome-0 {-sfsymbols-motion-group:0;-sfsymbols-layer-tags:figure.equestrian.sports}

.multicolor-0:tintColor {-sfsymbols-motion-group:0;-sfsymbols-layer-tags:figure.equestrian.sports}

.hierarchical-0:primary {-sfsymbols-motion-group:0;-sfsymbols-layer-tags:figure.equestrian.sports}

.SFSymbolsPreviewWireframe {fill:none;opacity:1.0;stroke:black;stroke-width:0.5}
</style>
 <g id="Notes">
  <rect height="2200" id="artboard" style="fill:white;opacity:1" width="3300" x="0" y="0"/>
  <line style="fill:none;stroke:black;opacity:1;stroke-width:0.5;" x1="263" x2="3036" y1="292" y2="292"/>
  <text style="stroke:none;fill:black;font-family:sans-serif;font-size:13;font-weight:bold;" transform="matrix(1 0 0 1 263 322)">Weight/Scale Variations</text>
  <text style="stroke:none;fill:black;font-family:sans-serif;font-size:13;text-anchor:middle;" transform="matrix(1 0 0 1 559.711 322)">Ultralight</text>
  <text style="stroke:none;fill:black;font-family:sans-serif;font-size:13;text-anchor:middle;" transform="matrix(1 0 0 1 856.422 322)">Thin</text>
  <text style="stroke:none;fill:black;font-family:sans-serif;font-size:13;text-anchor:middle;" transform="matrix(1 0 0 1 1153.13 322)">Light</text>
  <text style="stroke:none;fill:black;font-family:sans-serif;font-size:13;text-anchor:middle;" transform="matrix(1 0 0 1 1449.84 322)">Regular</text>
  <text style="stroke:none;fill:black;font-family:sans-serif;font-size:13;text-anchor:middle;" transform="matrix(1 0 0 1 1746.56 322)">Medium</text>
  <text style="stroke:none;fill:black;font-family:sans-serif;font-size:13;text-anchor:middle;" transform="matrix(1 0 0 1 2043.27 322)">Semibold</text>
  <text style="stroke:none;fill:black;font-family:sans-serif;font-size:13;text-anchor:middle;" transform="matrix(1 0 0 1 2339.98 322)">Bold</text>
  <text style="stroke:none;fill:black;font-family:sans-serif;font-size:13;text-anchor:middle;" transform="matrix(1 0 0 1 2636.69 322)">Heavy</text>
  <text style="stroke:none;fill:black;font-family:sans-serif;font-size:13;text-anchor:middle;" transform="matrix(1 0 0 1 2933.4 322)">Black</text>
  <line style="fill:none;stroke:black;opacity:1;stroke-width:0.5;" x1="263" x2="3036" y1="1903" y2="1903"/>
  <g transform="matrix(0.2 0 0 0.2 263 1933)">
   <path d="m46.2402 4.15039c21.7773 0 39.4531-17.627 39.4531-39.4043s-17.6758-39.4043-39.4531-39.4043c-21.7285 0-39.4043 17.627-39.4043 39.4043s17.6758 39.4043 39.4043 39.4043Zm0-7.42188c-17.6758 0-31.9336-14.3066-31.9336-31.9824s14.2578-31.9824 31.9336-31.9824 31.9824 14.3066 31.9824 31.9824-14.3066 31.9824-31.9824 31.9824Zm3.61328-17.7734v-28.4668c0-2.24609-1.46484-3.75977-3.71094-3.75977-2.14844 0-3.61328 1.51367-3.61328 3.75977v28.4668c0 2.19727 1.46484 3.71094 3.61328 3.71094 2.24609 0 3.71094-1.51367 3.71094-3.71094Zm-17.8223-10.5957h28.418c2.19727 0 3.71094-1.46484 3.71094-3.61328 0-2.19727-1.51367-3.71094-3.71094-3.71094h-28.418c-2.24609 0-3.75977 1.51367-3.75977 3.71094 0 2.14844 1.51367 3.61328 3.75977 3.61328Z"/>
  </g>
  <g transform="matrix(0.2 0 0 0.2 281.506 1933)">
   <path d="m58.5449 14.5508c27.4902 0 49.8047-22.3145 49.8047-49.8047s-22.3145-49.8047-49.8047-49.8047-49.8047 22.3145-49.8047 49.8047 22.3145 49.8047 49.8047 49.8047Zm0-8.30078c-22.9492 0-41.5039-18.5547-41.5039-41.5039s18.5547-41.5039 41.5039-41.5039 41.5039 18.5547 41.5039 41.5039-18.5547 41.5039-41.5039 41.5039Zm4.05273-23.0957v-36.9141c0-2.49023-1.70898-4.19922-4.15039-4.19922-2.39258 0-4.05273 1.70898-4.05273 4.19922v36.9141c0 2.44141 1.66016 4.15039 4.05273 4.15039 2.44141 0 4.15039-1.66016 4.15039-4.15039Zm-22.5586-14.4043h36.9629c2.44141 0 4.15039-1.61133 4.15039-4.00391 0-2.44141-1.70898-4.15039-4.15039-4.15039h-36.9629c-2.49023 0-4.15039 1.70898-4.15039 4.15039 0 2.39258 1.66016 4.00391 4.15039 4.00391Z"/>
  </g>
  <g transform="matrix(0.2 0 0 0.2 304.924 1933)">
   <path d="m74.8535 28.3203c35.1074 0 63.623-28.4668 63.623-63.5742s-28.5156-63.623-63.623-63.623-63.5742 28.5156-63.5742 63.623 28.4668 63.5742 63.5742 63.5742Zm0-9.08203c-30.127 0-54.4922-24.3652-54.4922-54.4922s24.3652-54.4922 54.4922-54.4922 54.4922 24.3652 54.4922 54.4922-24.3652 54.4922-54.4922 54.4922Zm4.44336-30.3223v-48.4863c0-2.73438-1.85547-4.63867-4.54102-4.63867-2.58789 0-4.44336 1.9043-4.44336 4.63867v48.4863c0 2.68555 1.85547 4.58984 4.44336 4.58984 2.68555 0 4.54102-1.85547 4.54102-4.58984Zm-28.7109-19.7754h48.4863c2.68555 0 4.58984-1.80664 4.58984-4.39453 0-2.73438-1.85547-4.58984-4.58984-4.58984h-48.4863c-2.73438 0-4.58984 1.85547-4.58984 4.58984 0 2.58789 1.85547 4.39453 4.58984 4.39453Z"/>
  </g>
  <text style="stroke:none;fill:black;font-family:sans-serif;font-size:13;font-weight:bold;" transform="matrix(1 0 0 1 263 1953)">Design Variations</text>
  <text style="stroke:none;fill:black;font-family:sans-serif;font-size:13;" transform="matrix(1 0 0 1 263 1971)">Symbols are supported in up to nine weights and three scales.</text>
  <text style="stroke:none;fill:black;font-family:sans-serif;font-size:13;" transform="matrix(1 0 0 1 263 1989)">For optimal layout with text and other symbols, vertically align</text>
  <text style="stroke:none;fill:black;font-family:sans-serif;font-size:13;" transform="matrix(1 0 0 1 263 2007)">symbols with the adjacent text.</text>
  <line style="fill:none;stroke:#00AEEF;stroke-width:0.5;opacity:1.0;" x1="776" x2="776" y1="1919" y2="1933"/>
  <g transform="matrix(0.2 0 0 0.2 776 1933)">
   <path d="m16.5527 0.78125c2.58789 0 3.85742-0.976562 4.78516-3.71094l20.5566-57.5195h0.244141l20.6055 57.5195c0.927734 2.73438 2.19727 3.71094 4.73633 3.71094 2.58789 0 4.24805-1.5625 4.24805-4.00391 0-0.830078-0.146484-1.61133-0.537109-2.63672l-22.9004-60.9863c-1.12305-2.97852-3.125-4.49219-6.25-4.49219-3.02734 0-5.07812 1.46484-6.15234 4.44336l-22.9004 61.084c-0.390625 1.02539-0.537109 1.80664-0.537109 2.63672 0 2.44141 1.5625 3.95508 4.10156 3.95508Zm10.2051-20.9473h30.6641c2.00195 0 3.66211-1.66016 3.66211-3.66211 0-2.05078-1.66016-3.66211-3.66211-3.66211h-30.6641c-2.00195 0-3.66211 1.61133-3.66211 3.66211 0 2.00195 1.66016 3.66211 3.66211 3.66211Z"/>
  </g>
  <line style="fill:none;stroke:#00AEEF;stroke-width:0.5;opacity:1.0;" x1="792.836" x2="792.836" y1="1919" y2="1933"/>
  <text style="stroke:none;fill:black;font-family:sans-serif;font-size:13;font-weight:bold;" transform="matrix(1 0 0 1 776 1953)">Margins</text>
  <text style="stroke:none;fill:black;font-family:sans-serif;font-size:13;" transform="matrix(1 0 0 1 776 1971)">Leading and trailing margins on the left and right side of each symbol</text>
  <text style="stroke:none;fill:black;font-family:sans-serif;font-size:13;" transform="matrix(1 0 0 1 776 1989)">can be adjusted by modifying the x-location of the margin guidelines.</text>
  <text style="stroke:none;fill:black;font-family:sans-serif;font-size:13;" transform="matrix(1 0 0 1 776 2007)">Modifications are automatically applied proportionally to all</text>
  <text style="stroke:none;fill:black;font-family:sans-serif;font-size:13;" transform="matrix(1 0 0 1 776 2025)">scales and weights.</text>
  <g transform="matrix(0.2 0 0 0.2 1289 1933)">
   <path d="m14.209 13.1348 7.86133 7.86133c4.29688 4.39453 9.32617 4.10156 13.8672-1.02539l60.6934-68.2129-4.88281-4.88281-60.2539 67.6758c-1.80664 1.95312-3.4668 2.44141-5.81055 0.0976562l-5.17578-5.12695c-2.29492-2.29492-1.80664-3.95508 0.195312-5.81055l67.4805-62.1582-4.88281-4.83398-68.0664 62.5977c-4.98047 4.58984-5.32227 9.47266-1.02539 13.8184Zm44.873-97.4609c-2.05078 2.00195-2.24609 4.88281-1.07422 6.78711 1.12305 1.80664 3.4668 3.02734 6.5918 2.24609 5.85938-1.66016 12.5977-2.39258 18.8965 0.927734l-2.68555 7.12891c-1.61133 4.00391-0.732422 6.88477 1.70898 9.42383l10.2539 10.3027c2.34375 2.39258 4.54102 2.44141 7.08008 1.95312l4.44336-0.732422 2.58789 2.53906-0.195312 2.24609c-0.0976562 2.29492 0.537109 4.29688 2.7832 6.49414l3.36914 3.32031c2.29492 2.29492 5.51758 2.49023 7.8125 0.195312l12.9883-13.0371c2.29492-2.34375 2.14844-5.37109-0.195312-7.66602l-3.41797-3.41797c-2.19727-2.19727-4.05273-3.02734-6.34766-2.88086l-2.34375 0.244141-2.44141-2.44141 1.02539-4.6875c0.634766-2.73438-0.244141-4.98047-2.88086-7.61719l-11.2793-11.1816c-12.9395-12.8418-35.5957-11.0352-46.6797-0.146484Zm7.08008 2.05078c8.78906-6.39648 25.9766-5.66406 33.6914 1.95312l12.3047 12.207c1.02539 1.02539 1.2207 1.80664 0.927734 3.32031l-1.46484 6.64062 6.73828 6.68945 4.39453-0.244141c1.12305-0.0488281 1.51367 0.0488281 2.34375 0.878906l2.53906 2.49023-10.8398 10.8398-2.49023-2.49023c-0.830078-0.878906-0.976562-1.2207-0.927734-2.39258l0.292969-4.3457-6.68945-6.73828-6.83594 1.17188c-1.41602 0.292969-2.05078 0.195312-3.17383-0.878906l-8.93555-8.88672c-1.07422-1.02539-1.17188-1.70898-0.488281-3.36914l4.58984-11.4746c-6.10352-6.34766-17.041-7.51953-25.5859-4.58984-0.683594 0.244141-0.927734-0.390625-0.390625-0.78125Z"/>
  </g>
  <text style="stroke:none;fill:black;font-family:sans-serif;font-size:13;font-weight:bold;" transform="matrix(1 0 0 1 1289 1953)">Exporting</text>
  <text style="stroke:none;fill:black;font-family:sans-serif;font-size:13;" transform="matrix(1 0 0 1 1289 1971)">Symbols should be outlined when exporting to ensure the</text>
  <text style="stroke:none;fill:black;font-family:sans-serif;font-size:13;" transform="matrix(1 0 0 1 1289 1989)">design is preserved when submitting to Xcode.</text>
  <text id="template-version" style="stroke:none;fill:black;font-family:sans-serif;font-size:13;text-anchor:end;" transform="matrix(1 0 0 1 3036 1933)">Template v.7.0</text>
  <text style="stroke:none;fill:black;font-family:sans-serif;font-size:13;text-anchor:end;" transform="matrix(1 0 0 1 3036 1951)">Requires Xcode 17 or greater</text>
  <text id="descriptive-name" style="stroke:none;fill:black;font-family:sans-serif;font-size:13;text-anchor:end;" transform="matrix(1 0 0 1 3036 1969)">Generated from figure.equestrian.sports</text>
  <text style="stroke:none;fill:black;font-family:sans-serif;font-size:13;text-anchor:end;" transform="matrix(1 0 0 1 3036 1987)">Typeset at 100.0 points</text>
  <text style="stroke:none;fill:black;font-family:sans-serif;font-size:13;" transform="matrix(1 0 0 1 263 726)">Small</text>
  <text style="stroke:none;fill:black;font-family:sans-serif;font-size:13;" transform="matrix(1 0 0 1 263 1156)">Medium</text>
  <text style="stroke:none;fill:black;font-family:sans-serif;font-size:13;" transform="matrix(1 0 0 1 263 1586)">Large</text>
 </g>
 <g id="Guides">
  <g id="H-reference" style="fill:#27AAE1;stroke:none;" transform="matrix(1 0 0 1 339 696)">
   <path d="M0.993654 0L3.63775 0L29.3281-67.1323L30.0303-67.1323L30.0303-70.459L28.1226-70.459ZM11.6885-24.4799L46.9815-24.4799L46.2315-26.7285L12.4385-26.7285ZM55.1196 0L57.7637 0L30.6382-70.459L29.4326-70.459L29.4326-67.1323Z"/>
  </g>
  <line id="Baseline-S" style="fill:none;stroke:#27AAE1;opacity:1;stroke-width:0.5;" x1="263" x2="3036" y1="696" y2="696"/>
  <line id="Capline-S" style="fill:none;stroke:#27AAE1;opacity:1;stroke-width:0.5;" x1="263" x2="3036" y1="625.541" y2="625.541"/>
  <g id="H-reference" style="fill:#27AAE1;stroke:none;" transform="matrix(1 0 0 1 339 1126)">
   <path d="M0.993654 0L3.63775 0L29.3281-67.1323L30.0303-67.1323L30.0303-70.459L28.1226-70.459ZM11.6885-24.4799L46.9815-24.4799L46.2315-26.7285L12.4385-26.7285ZM55.1196 0L57.7637 0L30.6382-70.459L29.4326-70.459L29.4326-67.1323Z"/>
  </g>
  <line id="Baseline-M" style="fill:none;stroke:#27AAE1;opacity:1;stroke-width:0.5;" x1="263" x2="3036" y1="1126" y2="1126"/>
  <line id="Capline-M" style="fill:none;stroke:#27AAE1;opacity:1;stroke-width:0.5;" x1="263" x2="3036" y1="1055.54" y2="1055.54"/>
  <g id="H-reference" style="fill:#27AAE1;stroke:none;" transform="matrix(1 0 0 1 339 1556)">
   <path d="M0.993654 0L3.63775 0L29.3281-67.1323L30.0303-67.1323L30.0303-70.459L28.1226-70.459ZM11.6885-24.4799L46.9815-24.4799L46.2315-26.7285L12.4385-26.7285ZM55.1196 0L57.7637 0L30.6382-70.459L29.4326-70.459L29.4326-67.1323Z"/>
  </g>
  <line id="Baseline-L" style="fill:none;stroke:#27AAE1;opacity:1;stroke-width:0.5;" x1="263" x2="3036" y1="1556" y2="1556"/>
  <line id="Capline-L" style="fill:none;stroke:#27AAE1;opacity:1;stroke-width:0.5;" x1="263" x2="3036" y1="1485.54" y2="1485.54"/>
  <line id="right-margin-Black-S" style="fill:none;stroke:#00AEEF;stroke-width:0.5;opacity:1.0;" x1="2992.51" x2="2992.51" y1="600.785" y2="720.121"/>
  <line id="left-margin-Black-S" style="fill:none;stroke:#00AEEF;stroke-width:0.5;opacity:1.0;" x1="2874.29" x2="2874.29" y1="600.785" y2="720.121"/>
  <line id="right-margin-Regular-S" style="fill:none;stroke:#00AEEF;stroke-width:0.5;opacity:1.0;" x1="1502.99" x2="1502.99" y1="600.785" y2="720.121"/>
  <line id="left-margin-Regular-S" style="fill:none;stroke:#00AEEF;stroke-width:0.5;opacity:1.0;" x1="1396.7" x2="1396.7" y1="600.785" y2="720.121"/>
  <line id="right-margin-Ultralight-S" style="fill:none;stroke:#00AEEF;stroke-width:0.5;opacity:1.0;" x1="608.161" x2="608.161" y1="600.785" y2="720.121"/>
  <line id="left-margin-Ultralight-S" style="fill:none;stroke:#00AEEF;stroke-width:0.5;opacity:1.0;" x1="511.262" x2="511.262" y1="600.785" y2="720.121"/>
 </g>
 <g id="Symbols">
  <g id="Black-S" transform="matrix(1 0 0 1 2874.29 696)">
   <path class="monochrome-0 multicolor-0:tintColor hierarchical-0:primary SFSymbolsPreviewWireframe" d="M65.1367-56.2012C70.5078-56.2012 74.9023-60.5957 74.9023-65.9668C74.9023-71.3379 70.5078-75.7324 65.1367-75.7324C59.7656-75.7324 55.3711-71.3379 55.3711-65.9668C55.3711-60.5957 59.7656-56.2012 65.1367-56.2012ZM70.752-26.8555C73.6816-26.8555 76.0254-29.1504 76.0254-32.0801C76.0254-35.0098 73.6816-37.3047 70.752-37.3047L56.7871-37.3047L56.7871-51.6113C56.7871-57.3242 51.9531-61.0352 46.6309-59.9609L21.4844-54.7852C11.5723-52.7344 9.13086-41.1621 16.1133-34.6191L30.4199-21.1426L30.4199-0.0488281C30.4199 2.83203 32.7637 5.22461 35.6445 5.22461C38.5254 5.22461 40.918 2.83203 40.918-0.0488281L40.918-23.1934C40.918-24.9512 40.4785-26.0254 39.4043-27.2461L29.1992-38.4766C28.7109-38.9648 28.9062-39.5996 29.5898-39.7461L45.2148-42.627C45.8984-42.7734 46.3379-42.4316 46.3379-41.748L46.3379-32.0801C46.3379-29.1504 48.6816-26.8555 51.5625-26.8555ZM93.6035-7.17773L103.467-7.17773C106.299-7.17773 108.447-9.27734 108.447-12.1094L108.447-51.416C108.447-54.248 106.299-56.3477 103.467-56.3477L93.457-56.3477C78.9551-56.3477 69.8242-52.6367 60.498-42.1875L70.752-42.1875C71.0938-42.1875 71.4844-42.1875 71.8262-42.1387C77.7344-46.7773 84.2285-48.5352 93.457-48.5352L100.635-48.5352L100.635-15.0391L93.6035-15.0391C92.5781-15.0391 92.1387-15.332 91.748-16.1621L88.0371-23.584C86.9629-25.6836 84.7656-26.0742 83.0566-25.3418C81.2012-24.6094 79.7852-22.5098 81.0547-20.0195L84.7656-12.5977C86.4258-9.27734 89.8926-7.17773 93.6035-7.17773ZM45.8008-12.7441C49.4141-15.4297 52.4414-18.6035 55.0293-21.9727L51.5625-21.9727C49.5605-21.9727 47.6562-22.5586 46.0938-23.584C45.9961-23.4863 45.8984-23.3398 45.8008-23.2422ZM13.7207-5.81055L22.2168-5.81055C23.4863-5.81055 24.7559-5.85938 25.5371-5.85938L25.5371-13.6719C24.707-13.6719 23.5352-13.623 22.2168-13.623L13.7207-13.623C11.6211-13.623 9.76562-12.0605 9.76562-9.66797C9.76562-7.61719 11.5723-5.81055 13.7207-5.81055Z"/>
  </g>
  <g id="Regular-S" transform="matrix(1 0 0 1 1396.7 696)">
   <path class="monochrome-0 multicolor-0:tintColor hierarchical-0:primary SFSymbolsPreviewWireframe" d="M59.082-55.4199C63.7695-55.4199 67.5293-59.2285 67.5293-63.9648C67.5293-68.6523 63.7695-72.4121 59.082-72.4121C54.3457-72.4121 50.5371-68.6523 50.5371-63.9648C50.5371-59.2285 54.3457-55.4199 59.082-55.4199ZM65.3809-28.7109C67.627-28.7109 69.4824-30.5176 69.4824-32.8125C69.4824-35.1074 67.627-36.9141 65.3809-36.9141L51.0742-36.9141L51.0742-51.5137C51.0742-56.3477 47.0215-59.4727 42.4805-58.5449L18.457-53.6133C9.76562-51.8066 7.37305-41.4551 13.6719-35.9375L28.6621-22.7539L28.6621-2.14844C28.6621 0.0488281 30.4688 1.9043 32.7148 1.9043C34.9609 1.9043 36.8164 0.0488281 36.8164-2.14844L36.8164-24.3164C36.8164-25.7812 36.5234-26.5625 35.5957-27.5391L24.0723-39.1113C23.4375-39.7461 23.7793-40.6738 24.5605-40.8203L40.7227-43.8477C42.334-44.1406 42.9199-43.6035 42.9199-42.1875L42.9199-32.8125C42.9199-30.5176 44.7754-28.7109 47.0215-28.7109ZM87.3047-13.0859L93.0176-13.0859C95.0684-13.0859 96.4844-14.502 96.4844-16.5039L96.4844-51.3672C96.4844-53.3203 95.0684-54.7363 93.0176-54.7363L87.1582-54.7363C73.1934-54.7363 64.7461-51.123 55.8594-40.7227L62.1582-40.7227C62.3047-40.7227 62.4512-40.7227 62.5977-40.7227C69.4336-47.3633 76.5137-49.8535 87.1582-49.8535L91.5039-49.8535L91.5039-18.0176L87.3047-18.0176C85.9863-18.0176 84.9609-18.6523 84.375-19.8242L80.8594-26.9043C80.1758-28.1738 78.9551-28.4668 77.8809-28.125C76.6113-27.6855 75.6348-26.3184 76.4648-24.707L79.9805-17.5781C81.3965-14.8438 84.1797-13.0859 87.3047-13.0859ZM40.6738-15.2344C44.4824-17.9688 47.4609-21.3379 50.1953-24.8535L47.0215-24.8535C45.9961-24.8535 45.0684-25.0488 44.1895-25.3906C43.0664-24.0723 41.8945-22.8516 40.6738-21.7285ZM12.3047-8.98438L19.043-8.98438C21.0938-8.98438 22.998-9.08203 24.8047-9.32617L24.8047-14.3066C23.0469-14.0625 21.0938-13.916 19.043-13.916L12.3047-13.916C10.9375-13.916 9.81445-12.8418 9.81445-11.377C9.81445-10.1074 10.9375-8.98438 12.3047-8.98438Z"/>
  </g>
  <g id="Ultralight-S" transform="matrix(1 0 0 1 511.262 696)">
   <path class="monochrome-0 multicolor-0:tintColor hierarchical-0:primary SFSymbolsPreviewWireframe" d="M55.2222-53.7852C59.4556-53.7852 62.9429-57.2759 62.9429-61.5581C62.9429-65.7915 59.4556-69.2334 55.2222-69.2334C50.94-69.2334 47.4492-65.7915 47.4492-61.5581C47.4492-57.2759 50.94-53.7852 55.2222-53.7852ZM60.0225-29.0288C62.087-29.0288 63.7608-30.6992 63.7608-32.7671C63.7608-34.835 62.087-36.5054 60.0225-36.5054L47.0327-36.5054L47.0327-49.7881C47.0327-54.2134 43.3433-57.0205 39.211-56.1836L17.3218-51.6607C9.44776-50.0357 7.32764-40.6831 12.9907-35.6196L26.6187-23.6167L26.6187-4.87303C26.6187-2.8574 28.3345-1.18357 30.3535-1.18357C32.3726-1.18357 34.0464-2.8574 34.0464-4.87303L34.0464-25.043C34.0464-26.3716 33.7534-27.062 32.9619-27.9478L22.4829-38.521C21.8936-39.1104 22.19-39.9473 22.9258-40.0938L37.6348-42.7578C39.0645-43.0054 39.605-42.6045 39.605-41.3247L39.605-32.7671C39.605-30.6992 41.2788-29.0288 43.3433-29.0288ZM79.9937-16.0376L85.1617-16.0376C86.5767-16.0376 87.13-16.6362 87.13-18.0024L87.13-50.0957C87.13-51.0044 86.5767-51.5576 85.6158-51.5576L79.8472-51.5576C67.5625-51.5576 60.2505-48.5347 52.4082-39.4512L55.0289-39.4512C55.1299-39.4512 55.231-39.4512 55.3321-39.4512C62.168-46.773 69.1119-49.4902 79.8472-49.4902L85.0557-49.4902L85.0557-18.1992L79.9937-18.1992C78.2667-18.1992 77.0142-19.061 76.2921-20.46L73.0489-26.9043C72.7286-27.4927 72.1436-27.6494 71.6597-27.4439C71.1622-27.2314 70.7759-26.6816 71.1519-25.9785L74.3951-19.4853C75.4932-17.2959 77.5044-16.0376 79.9937-16.0376ZM37.041-17.9136C40.2139-20.1938 42.7837-23.0635 45.1094-26.0796L43.3433-26.0796C42.999-26.0796 42.707-26.0478 42.3731-26.1172C40.7505-24.1631 38.9883-22.3521 37.041-20.7295ZM11.8052-12.3447L17.8623-12.3447C19.9131-12.3447 21.8628-12.4878 23.624-12.7319L23.624-14.8516C21.8662-14.562 19.9131-14.4155 17.8623-14.4155L11.8052-14.4155C11.1645-14.4155 10.6772-13.977 10.6772-13.3296C10.6772-12.7412 11.1645-12.3447 11.8052-12.3447Z"/>
  </g>
 </g>
</svg>
