<?xml version="1.0" encoding="UTF-8"?>
<!--Generator: Apple Native CoreSVG 341-->
<!DOCTYPE svg
PUBLIC "-//W3C//DTD SVG 1.1//EN"
       "http://www.w3.org/Graphics/SVG/1.1/DTD/svg11.dtd">
<svg version="1.1" xmlns="http://www.w3.org/2000/svg" xmlns:xlink="http://www.w3.org/1999/xlink" viewBox="0 0 3300 2200">
 <!--glyph: "1024F5", point size: 100.0, font version: "21.0d6e2", template writer version: "138.0.0"-->
 <style>.defaults {-sfsymbols-draw-reverses-motion-groups:true}

.monochrome-0 {-sfsymbols-motion-group:0;-sfsymbols-layer-tags:motorcycle.fill}

.multicolor-0:tintColor {-sfsymbols-motion-group:0;-sfsymbols-layer-tags:motorcycle.fill}

.hierarchical-0:primary {-sfsymbols-motion-group:0;-sfsymbols-layer-tags:motorcycle.fill}

.SFSymbolsPreviewWireframe {fill:none;opacity:1.0;stroke:black;stroke-width:0.5}
</style>
 <g id="Notes">
  <rect height="2200" id="artboard" style="fill:white;opacity:1" width="3300" x="0" y="0"/>
  <line style="fill:none;stroke:black;opacity:1;stroke-width:0.5;" x1="263" x2="3036" y1="292" y2="292"/>
  <text style="stroke:none;fill:black;font-family:sans-serif;font-size:13;font-weight:bold;" transform="matrix(1 0 0 1 263 322)">Weight/Scale Variations</text>
  <text style="stroke:none;fill:black;font-family:sans-serif;font-size:13;text-anchor:middle;" transform="matrix(1 0 0 1 559.711 322)">Ultralight</text>
  <text style="stroke:none;fill:black;font-family:sans-serif;font-size:13;text-anchor:middle;" transform="matrix(1 0 0 1 856.422 322)">Thin</text>
  <text style="stroke:none;fill:black;font-family:sans-serif;font-size:13;text-anchor:middle;" transform="matrix(1 0 0 1 1153.13 322)">Light</text>
  <text style="stroke:none;fill:black;font-family:sans-serif;font-size:13;text-anchor:middle;" transform="matrix(1 0 0 1 1449.84 322)">Regular</text>
  <text style="stroke:none;fill:black;font-family:sans-serif;font-size:13;text-anchor:middle;" transform="matrix(1 0 0 1 1746.56 322)">Medium</text>
  <text style="stroke:none;fill:black;font-family:sans-serif;font-size:13;text-anchor:middle;" transform="matrix(1 0 0 1 2043.27 322)">Semibold</text>
  <text style="stroke:none;fill:black;font-family:sans-serif;font-size:13;text-anchor:middle;" transform="matrix(1 0 0 1 2339.98 322)">Bold</text>
  <text style="stroke:none;fill:black;font-family:sans-serif;font-size:13;text-anchor:middle;" transform="matrix(1 0 0 1 2636.69 322)">Heavy</text>
  <text style="stroke:none;fill:black;font-family:sans-serif;font-size:13;text-anchor:middle;" transform="matrix(1 0 0 1 2933.4 322)">Black</text>
  <line style="fill:none;stroke:black;opacity:1;stroke-width:0.5;" x1="263" x2="3036" y1="1903" y2="1903"/>
  <g transform="matrix(0.2 0 0 0.2 263 1933)">
   <path d="m46.2402 4.15039c21.7773 0 39.4531-17.627 39.4531-39.4043s-17.6758-39.4043-39.4531-39.4043c-21.7285 0-39.4043 17.627-39.4043 39.4043s17.6758 39.4043 39.4043 39.4043Zm0-7.42188c-17.6758 0-31.9336-14.3066-31.9336-31.9824s14.2578-31.9824 31.9336-31.9824 31.9824 14.3066 31.9824 31.9824-14.3066 31.9824-31.9824 31.9824Zm3.61328-17.7734v-28.4668c0-2.24609-1.46484-3.75977-3.71094-3.75977-2.14844 0-3.61328 1.51367-3.61328 3.75977v28.4668c0 2.19727 1.46484 3.71094 3.61328 3.71094 2.24609 0 3.71094-1.51367 3.71094-3.71094Zm-17.8223-10.5957h28.418c2.19727 0 3.71094-1.46484 3.71094-3.61328 0-2.19727-1.51367-3.71094-3.71094-3.71094h-28.418c-2.24609 0-3.75977 1.51367-3.75977 3.71094 0 2.14844 1.51367 3.61328 3.75977 3.61328Z"/>
  </g>
  <g transform="matrix(0.2 0 0 0.2 281.506 1933)">
   <path d="m58.5449 14.5508c27.4902 0 49.8047-22.3145 49.8047-49.8047s-22.3145-49.8047-49.8047-49.8047-49.8047 22.3145-49.8047 49.8047 22.3145 49.8047 49.8047 49.8047Zm0-8.30078c-22.9492 0-41.5039-18.5547-41.5039-41.5039s18.5547-41.5039 41.5039-41.5039 41.5039 18.5547 41.5039 41.5039-18.5547 41.5039-41.5039 41.5039Zm4.05273-23.0957v-36.9141c0-2.49023-1.70898-4.19922-4.15039-4.19922-2.39258 0-4.05273 1.70898-4.05273 4.19922v36.9141c0 2.44141 1.66016 4.15039 4.05273 4.15039 2.44141 0 4.15039-1.66016 4.15039-4.15039Zm-22.5586-14.4043h36.9629c2.44141 0 4.15039-1.61133 4.15039-4.00391 0-2.44141-1.70898-4.15039-4.15039-4.15039h-36.9629c-2.49023 0-4.15039 1.70898-4.15039 4.15039 0 2.39258 1.66016 4.00391 4.15039 4.00391Z"/>
  </g>
  <g transform="matrix(0.2 0 0 0.2 304.924 1933)">
   <path d="m74.8535 28.3203c35.1074 0 63.623-28.4668 63.623-63.5742s-28.5156-63.623-63.623-63.623-63.5742 28.5156-63.5742 63.623 28.4668 63.5742 63.5742 63.5742Zm0-9.08203c-30.127 0-54.4922-24.3652-54.4922-54.4922s24.3652-54.4922 54.4922-54.4922 54.4922 24.3652 54.4922 54.4922-24.3652 54.4922-54.4922 54.4922Zm4.44336-30.3223v-48.4863c0-2.73438-1.85547-4.63867-4.54102-4.63867-2.58789 0-4.44336 1.9043-4.44336 4.63867v48.4863c0 2.68555 1.85547 4.58984 4.44336 4.58984 2.68555 0 4.54102-1.85547 4.54102-4.58984Zm-28.7109-19.7754h48.4863c2.68555 0 4.58984-1.80664 4.58984-4.39453 0-2.73438-1.85547-4.58984-4.58984-4.58984h-48.4863c-2.73438 0-4.58984 1.85547-4.58984 4.58984 0 2.58789 1.85547 4.39453 4.58984 4.39453Z"/>
  </g>
  <text style="stroke:none;fill:black;font-family:sans-serif;font-size:13;font-weight:bold;" transform="matrix(1 0 0 1 263 1953)">Design Variations</text>
  <text style="stroke:none;fill:black;font-family:sans-serif;font-size:13;" transform="matrix(1 0 0 1 263 1971)">Symbols are supported in up to nine weights and three scales.</text>
  <text style="stroke:none;fill:black;font-family:sans-serif;font-size:13;" transform="matrix(1 0 0 1 263 1989)">For optimal layout with text and other symbols, vertically align</text>
  <text style="stroke:none;fill:black;font-family:sans-serif;font-size:13;" transform="matrix(1 0 0 1 263 2007)">symbols with the adjacent text.</text>
  <line style="fill:none;stroke:#00AEEF;stroke-width:0.5;opacity:1.0;" x1="776" x2="776" y1="1919" y2="1933"/>
  <g transform="matrix(0.2 0 0 0.2 776 1933)">
   <path d="m16.5527 0.78125c2.58789 0 3.85742-0.976562 4.78516-3.71094l20.5566-57.5195h0.244141l20.6055 57.5195c0.927734 2.73438 2.19727 3.71094 4.73633 3.71094 2.58789 0 4.24805-1.5625 4.24805-4.00391 0-0.830078-0.146484-1.61133-0.537109-2.63672l-22.9004-60.9863c-1.12305-2.97852-3.125-4.49219-6.25-4.49219-3.02734 0-5.07812 1.46484-6.15234 4.44336l-22.9004 61.084c-0.390625 1.02539-0.537109 1.80664-0.537109 2.63672 0 2.44141 1.5625 3.95508 4.10156 3.95508Zm10.2051-20.9473h30.6641c2.00195 0 3.66211-1.66016 3.66211-3.66211 0-2.05078-1.66016-3.66211-3.66211-3.66211h-30.6641c-2.00195 0-3.66211 1.61133-3.66211 3.66211 0 2.00195 1.66016 3.66211 3.66211 3.66211Z"/>
  </g>
  <line style="fill:none;stroke:#00AEEF;stroke-width:0.5;opacity:1.0;" x1="792.836" x2="792.836" y1="1919" y2="1933"/>
  <text style="stroke:none;fill:black;font-family:sans-serif;font-size:13;font-weight:bold;" transform="matrix(1 0 0 1 776 1953)">Margins</text>
  <text style="stroke:none;fill:black;font-family:sans-serif;font-size:13;" transform="matrix(1 0 0 1 776 1971)">Leading and trailing margins on the left and right side of each symbol</text>
  <text style="stroke:none;fill:black;font-family:sans-serif;font-size:13;" transform="matrix(1 0 0 1 776 1989)">can be adjusted by modifying the x-location of the margin guidelines.</text>
  <text style="stroke:none;fill:black;font-family:sans-serif;font-size:13;" transform="matrix(1 0 0 1 776 2007)">Modifications are automatically applied proportionally to all</text>
  <text style="stroke:none;fill:black;font-family:sans-serif;font-size:13;" transform="matrix(1 0 0 1 776 2025)">scales and weights.</text>
  <g transform="matrix(0.2 0 0 0.2 1289 1933)">
   <path d="m14.209 13.1348 7.86133 7.86133c4.29688 4.39453 9.32617 4.10156 13.8672-1.02539l60.6934-68.2129-4.88281-4.88281-60.2539 67.6758c-1.80664 1.95312-3.4668 2.44141-5.81055 0.0976562l-5.17578-5.12695c-2.29492-2.29492-1.80664-3.95508 0.195312-5.81055l67.4805-62.1582-4.88281-4.83398-68.0664 62.5977c-4.98047 4.58984-5.32227 9.47266-1.02539 13.8184Zm44.873-97.4609c-2.05078 2.00195-2.24609 4.88281-1.07422 6.78711 1.12305 1.80664 3.4668 3.02734 6.5918 2.24609 5.85938-1.66016 12.5977-2.39258 18.8965 0.927734l-2.68555 7.12891c-1.61133 4.00391-0.732422 6.88477 1.70898 9.42383l10.2539 10.3027c2.34375 2.39258 4.54102 2.44141 7.08008 1.95312l4.44336-0.732422 2.58789 2.53906-0.195312 2.24609c-0.0976562 2.29492 0.537109 4.29688 2.7832 6.49414l3.36914 3.32031c2.29492 2.29492 5.51758 2.49023 7.8125 0.195312l12.9883-13.0371c2.29492-2.34375 2.14844-5.37109-0.195312-7.66602l-3.41797-3.41797c-2.19727-2.19727-4.05273-3.02734-6.34766-2.88086l-2.34375 0.244141-2.44141-2.44141 1.02539-4.6875c0.634766-2.73438-0.244141-4.98047-2.88086-7.61719l-11.2793-11.1816c-12.9395-12.8418-35.5957-11.0352-46.6797-0.146484Zm7.08008 2.05078c8.78906-6.39648 25.9766-5.66406 33.6914 1.95312l12.3047 12.207c1.02539 1.02539 1.2207 1.80664 0.927734 3.32031l-1.46484 6.64062 6.73828 6.68945 4.39453-0.244141c1.12305-0.0488281 1.51367 0.0488281 2.34375 0.878906l2.53906 2.49023-10.8398 10.8398-2.49023-2.49023c-0.830078-0.878906-0.976562-1.2207-0.927734-2.39258l0.292969-4.3457-6.68945-6.73828-6.83594 1.17188c-1.41602 0.292969-2.05078 0.195312-3.17383-0.878906l-8.93555-8.88672c-1.07422-1.02539-1.17188-1.70898-0.488281-3.36914l4.58984-11.4746c-6.10352-6.34766-17.041-7.51953-25.5859-4.58984-0.683594 0.244141-0.927734-0.390625-0.390625-0.78125Z"/>
  </g>
  <text style="stroke:none;fill:black;font-family:sans-serif;font-size:13;font-weight:bold;" transform="matrix(1 0 0 1 1289 1953)">Exporting</text>
  <text style="stroke:none;fill:black;font-family:sans-serif;font-size:13;" transform="matrix(1 0 0 1 1289 1971)">Symbols should be outlined when exporting to ensure the</text>
  <text style="stroke:none;fill:black;font-family:sans-serif;font-size:13;" transform="matrix(1 0 0 1 1289 1989)">design is preserved when submitting to Xcode.</text>
  <text id="template-version" style="stroke:none;fill:black;font-family:sans-serif;font-size:13;text-anchor:end;" transform="matrix(1 0 0 1 3036 1933)">Template v.7.0</text>
  <text style="stroke:none;fill:black;font-family:sans-serif;font-size:13;text-anchor:end;" transform="matrix(1 0 0 1 3036 1951)">Requires Xcode 17 or greater</text>
  <text id="descriptive-name" style="stroke:none;fill:black;font-family:sans-serif;font-size:13;text-anchor:end;" transform="matrix(1 0 0 1 3036 1969)">Generated from motorcycle.fill</text>
  <text style="stroke:none;fill:black;font-family:sans-serif;font-size:13;text-anchor:end;" transform="matrix(1 0 0 1 3036 1987)">Typeset at 100.0 points</text>
  <text style="stroke:none;fill:black;font-family:sans-serif;font-size:13;" transform="matrix(1 0 0 1 263 726)">Small</text>
  <text style="stroke:none;fill:black;font-family:sans-serif;font-size:13;" transform="matrix(1 0 0 1 263 1156)">Medium</text>
  <text style="stroke:none;fill:black;font-family:sans-serif;font-size:13;" transform="matrix(1 0 0 1 263 1586)">Large</text>
 </g>
 <g id="Guides">
  <g id="H-reference" style="fill:#27AAE1;stroke:none;" transform="matrix(1 0 0 1 339 696)">
   <path d="M0.993654 0L3.63775 0L29.3281-67.1323L30.0303-67.1323L30.0303-70.459L28.1226-70.459ZM11.6885-24.4799L46.9815-24.4799L46.2315-26.7285L12.4385-26.7285ZM55.1196 0L57.7637 0L30.6382-70.459L29.4326-70.459L29.4326-67.1323Z"/>
  </g>
  <line id="Baseline-S" style="fill:none;stroke:#27AAE1;opacity:1;stroke-width:0.5;" x1="263" x2="3036" y1="696" y2="696"/>
  <line id="Capline-S" style="fill:none;stroke:#27AAE1;opacity:1;stroke-width:0.5;" x1="263" x2="3036" y1="625.541" y2="625.541"/>
  <g id="H-reference" style="fill:#27AAE1;stroke:none;" transform="matrix(1 0 0 1 339 1126)">
   <path d="M0.993654 0L3.63775 0L29.3281-67.1323L30.0303-67.1323L30.0303-70.459L28.1226-70.459ZM11.6885-24.4799L46.9815-24.4799L46.2315-26.7285L12.4385-26.7285ZM55.1196 0L57.7637 0L30.6382-70.459L29.4326-70.459L29.4326-67.1323Z"/>
  </g>
  <line id="Baseline-M" style="fill:none;stroke:#27AAE1;opacity:1;stroke-width:0.5;" x1="263" x2="3036" y1="1126" y2="1126"/>
  <line id="Capline-M" style="fill:none;stroke:#27AAE1;opacity:1;stroke-width:0.5;" x1="263" x2="3036" y1="1055.54" y2="1055.54"/>
  <g id="H-reference" style="fill:#27AAE1;stroke:none;" transform="matrix(1 0 0 1 339 1556)">
   <path d="M0.993654 0L3.63775 0L29.3281-67.1323L30.0303-67.1323L30.0303-70.459L28.1226-70.459ZM11.6885-24.4799L46.9815-24.4799L46.2315-26.7285L12.4385-26.7285ZM55.1196 0L57.7637 0L30.6382-70.459L29.4326-70.459L29.4326-67.1323Z"/>
  </g>
  <line id="Baseline-L" style="fill:none;stroke:#27AAE1;opacity:1;stroke-width:0.5;" x1="263" x2="3036" y1="1556" y2="1556"/>
  <line id="Capline-L" style="fill:none;stroke:#27AAE1;opacity:1;stroke-width:0.5;" x1="263" x2="3036" y1="1485.54" y2="1485.54"/>
  <line id="right-margin-Black-S" style="fill:none;stroke:#00AEEF;stroke-width:0.5;opacity:1.0;" x1="3015.58" x2="3015.58" y1="600.785" y2="720.121"/>
  <line id="left-margin-Black-S" style="fill:none;stroke:#00AEEF;stroke-width:0.5;opacity:1.0;" x1="2851.22" x2="2851.22" y1="600.785" y2="720.121"/>
  <line id="right-margin-Regular-S" style="fill:none;stroke:#00AEEF;stroke-width:0.5;opacity:1.0;" x1="1524.65" x2="1524.65" y1="600.785" y2="720.121"/>
  <line id="left-margin-Regular-S" style="fill:none;stroke:#00AEEF;stroke-width:0.5;opacity:1.0;" x1="1375.04" x2="1375.04" y1="600.785" y2="720.121"/>
  <line id="right-margin-Ultralight-S" style="fill:none;stroke:#00AEEF;stroke-width:0.5;opacity:1.0;" x1="629.884" x2="629.884" y1="600.785" y2="720.121"/>
  <line id="left-margin-Ultralight-S" style="fill:none;stroke:#00AEEF;stroke-width:0.5;opacity:1.0;" x1="489.538" x2="489.538" y1="600.785" y2="720.121"/>
 </g>
 <g id="Symbols">
  <g id="Black-S" transform="matrix(1 0 0 1 2851.22 696)">
   <path class="monochrome-0 multicolor-0:tintColor hierarchical-0:primary SFSymbolsPreviewWireframe" d="M86.6699-19.7754C100.83-19.7754 110.205-27.1973 110.205-39.5508C110.205-49.3652 103.906-56.4453 92.5781-56.543C83.7891-56.5918 75.9277-53.6621 62.6953-43.3594L31.5918-19.1895L37.5977-11.2793L67.1387-34.2285L58.3496-34.1797C64.9902-26.0254 73.6816-19.7754 86.6699-19.7754ZM34.1309 9.7168C47.5586 9.7168 58.3984-1.17188 58.3984-14.5996C58.3984-28.0273 47.5586-38.9648 34.1309-38.9648C20.6055-38.9648 9.76562-28.0273 9.76562-14.5996C9.76562-1.17188 20.6055 9.7168 34.1309 9.7168ZM34.082-0.341797C26.1719-0.341797 19.7754-6.68945 19.7754-14.6973C19.7754-22.5586 26.2207-28.9062 34.082-28.9062C41.9434-28.9062 48.3887-22.6074 48.3887-14.6973C48.3887-6.73828 41.9434-0.341797 34.082-0.341797ZM37.793-46.7773L57.959-46.7773C60.8398-46.7773 63.1836-49.1211 63.1836-52.002C63.1836-54.8828 60.8398-57.2266 57.959-57.2266L37.793-57.2266C34.9121-57.2266 32.5684-54.8828 32.5684-52.002C32.5684-49.1211 34.9121-46.7773 37.793-46.7773ZM130.322 9.7168C143.75 9.7168 154.59-1.17188 154.59-14.5996C154.59-28.0273 143.75-38.9648 130.322-38.9648C116.797-38.9648 105.957-28.0273 105.957-14.5996C105.957-1.17188 116.797 9.7168 130.322 9.7168ZM130.273-0.341797C122.363-0.341797 115.967-6.68945 115.967-14.6973C115.967-22.5586 122.412-28.9062 130.273-28.9062C138.135-28.9062 144.58-22.6074 144.58-14.6973C144.58-6.73828 138.135-0.341797 130.273-0.341797ZM130.322-7.27539C134.424-7.27539 137.695-10.5469 137.695-14.6484C137.695-18.7988 134.473-22.0215 130.322-22.0215C126.172-22.0215 122.949-18.8477 122.9-14.6973C122.852-10.5469 126.123-7.27539 130.322-7.27539ZM125.781-10.8398L135.791-13.5254L119.287-76.416C118.555-79.1992 116.113-80.4688 112.842-80.4688L99.0723-80.4688C96.1914-80.4688 93.8477-78.125 93.8477-75.2441C93.8477-72.3633 96.1914-70.0195 99.0723-70.0195L110.254-70.0195C110.693-70.0195 110.938-69.873 111.035-69.4824ZM137.598-45.6543C139.648-45.459 140.576-47.0703 140.186-49.0234L137.061-64.1113C136.67-66.0645 135.156-66.9922 133.35-66.0156C131.836-65.1855 130.518-63.9648 129.541-62.5C126.172-57.5684 127.637-50.5859 132.617-47.4121C134.033-46.4355 135.791-45.8008 137.598-45.6543ZM34.1309-7.27539C38.2324-7.27539 41.5039-10.5469 41.5039-14.6484C41.5039-18.7988 38.2812-22.0215 34.1309-22.0215C29.9805-22.0215 26.7578-18.8477 26.709-14.6973C26.6602-10.5469 29.9316-7.27539 34.1309-7.27539ZM68.6523-4.15039L80.4688-4.15039C83.2031-4.15039 84.668-5.0293 85.9375-6.78711L102.148-29.0527L87.8906-26.416L79.4922-15.1855C79.1504-14.6973 78.9551-14.5996 78.1738-14.5996L68.6523-14.5996C65.7715-14.5996 63.4277-12.2559 63.4277-9.375C63.4277-6.49414 65.7715-4.15039 68.6523-4.15039Z"/>
  </g>
  <g id="Regular-S" transform="matrix(1 0 0 1 1375.04 696)">
   <path class="monochrome-0 multicolor-0:tintColor hierarchical-0:primary SFSymbolsPreviewWireframe" d="M81.0547-22.9492C93.6035-22.9492 100.977-29.834 100.977-38.7207C100.977-48.1934 95.166-54.8828 83.9844-55.0293C76.2207-55.127 68.75-51.9043 58.2031-43.6523L27.2949-19.4824L31.3477-14.1113L60.6934-37.0605L55.0781-34.2285C61.4746-27.0996 70.9473-22.9492 81.0547-22.9492ZM30.4199 3.36914C41.7969 3.36914 50.9766-5.85938 50.9766-17.2363C50.9766-28.6133 41.7969-37.8906 30.4199-37.8906C18.9941-37.8906 9.76562-28.6133 9.76562-17.2363C9.76562-5.81055 18.9941 3.36914 30.4199 3.36914ZM30.3711-3.41797C22.6562-3.41797 16.5039-9.61914 16.5039-17.2852C16.5039-24.9512 22.6562-31.1035 30.3711-31.1035C38.0371-31.1035 44.2383-24.9512 44.2383-17.2852C44.2383-9.61914 38.0371-3.41797 30.3711-3.41797ZM36.8164-46.2891L54.541-46.2891C56.3965-46.2891 57.9102-47.8027 57.9102-49.6582C57.9102-51.5137 56.3477-53.0762 54.541-53.0762L36.8164-53.0762C35.0098-53.0762 33.4473-51.5137 33.4473-49.6582C33.4473-47.8027 34.9609-46.2891 36.8164-46.2891ZM119.287 3.36914C130.664 3.36914 139.844-5.85938 139.844-17.2363C139.844-28.6133 130.664-37.8906 119.287-37.8906C107.861-37.8906 98.6328-28.6133 98.6328-17.2363C98.6328-5.81055 107.861 3.36914 119.287 3.36914ZM119.238-3.41797C111.523-3.41797 105.371-9.61914 105.371-17.2852C105.371-24.9512 111.523-31.1035 119.238-31.1035C126.904-31.1035 133.105-24.9512 133.105-17.2852C133.105-9.61914 126.904-3.41797 119.238-3.41797ZM119.189-11.8164C122.168-11.8164 124.561-14.2578 124.561-17.2852C124.561-20.3125 122.217-22.7051 119.189-22.7051C116.113-22.7051 113.965-20.3613 113.916-17.2852C113.867-14.2578 116.064-11.8164 119.189-11.8164ZM116.064-16.9922L122.412-19.1895L101.611-71.0449C100.83-72.998 99.2676-73.8281 96.8262-73.8281L85.9375-73.8281C84.0332-73.8281 82.5684-72.3145 82.5684-70.459C82.5684-68.5547 84.0332-67.041 85.9375-67.041L95.459-67.041C95.752-67.041 95.8984-66.9922 96.0449-66.6992ZM120.068-46.7285C121.484-46.582 122.168-47.7539 121.875-49.1211L119.678-59.8633C119.385-61.2793 118.311-61.9629 116.992-61.2305C115.967-60.6445 114.99-59.7656 114.307-58.7402C111.914-55.2246 112.988-50.2441 116.504-47.998C117.48-47.3145 118.75-46.8262 120.068-46.7285ZM30.2734-11.8164C33.3008-11.8164 35.6934-14.2578 35.6934-17.2852C35.6934-20.3125 33.3496-22.7051 30.2734-22.7051C27.2461-22.7051 25.0977-20.3613 25.0488-17.2852C25-14.2578 27.1973-11.8164 30.2734-11.8164ZM61.2793-8.34961L72.0215-8.34961C73.7793-8.34961 74.6582-8.83789 75.9277-10.2051L91.6992-27.2461L82.3242-27.4902L71.5332-15.6738C71.1914-15.332 70.8496-15.1367 70.166-15.1367L61.2793-15.1367C59.4238-15.1367 57.9102-13.623 57.9102-11.7676C57.9102-9.86328 59.4238-8.34961 61.2793-8.34961Z"/>
  </g>
  <g id="Ultralight-S" transform="matrix(1 0 0 1 489.538 696)">
   <path class="monochrome-0 multicolor-0:tintColor hierarchical-0:primary SFSymbolsPreviewWireframe" d="M76.1504-27.354C86.7012-27.354 93.9835-33.603 93.9835-41.0366C93.9835-48.6475 89.0357-53.7022 79.7159-53.8032C73.2237-53.9009 65.3443-50.7691 56.9771-43.3799L29.6108-19.0737L30.939-17.5171L56.8789-40.6933L53.3526-39.5869C59.749-31.1411 66.3609-27.354 76.1504-27.354ZM29.9204 2.46094C41.0703 2.46094 50.0684-6.58593 50.0684-17.6904C50.0684-28.8403 41.0703-37.8906 29.9204-37.8906C18.7671-37.8906 9.76562-28.8403 9.76562-17.6904C9.76562-6.58251 18.7671 2.46094 29.9204 2.46094ZM29.917 0.260225C19.75 0.260225 11.9629-7.5757 11.9629-17.6938C11.9629-27.8574 19.75-35.6899 29.917-35.6899C40.0806-35.6899 47.8711-27.8574 47.8711-17.6938C47.8711-7.5757 40.0806 0.260225 29.917 0.260225ZM34.4551-48.1509L51.8618-48.1509C52.4458-48.1509 52.9605-48.6201 52.9605-49.2495C52.9605-49.8335 52.4424-50.3516 51.8618-50.3516L34.4551-50.3516C33.8291-50.3516 33.3564-49.8335 33.3564-49.2495C33.3564-48.6201 33.8257-48.1509 34.4551-48.1509ZM110.432 2.46094C121.582 2.46094 130.58-6.58593 130.58-17.6904C130.58-28.8403 121.582-37.8906 110.432-37.8906C99.2789-37.8906 90.2774-28.8403 90.2774-17.6904C90.2774-6.58251 99.2789 2.46094 110.432 2.46094ZM110.429 0.260225C100.262 0.260225 92.4747-7.5757 92.4747-17.6938C92.4747-27.8574 100.262-35.6899 110.429-35.6899C120.592-35.6899 128.383-27.8574 128.383-17.6938C128.383-7.5757 120.592 0.260225 110.429 0.260225ZM110.425-14.6772C112.087-14.6772 113.481-16.0742 113.481-17.7393C113.481-19.4497 112.09-20.7979 110.425-20.7979C108.711-20.7979 107.38-19.4531 107.377-17.7393C107.374-16.0742 108.708-14.6772 110.425-14.6772ZM109.525-17.4009L111.605-18.1904L90.3497-71.4536C89.9317-72.4985 89.2774-72.9199 88.1075-72.9199L76.6285-72.9199C75.9957-72.9199 75.5298-72.4053 75.5298-71.8213C75.5298-71.1885 75.9957-70.7192 76.6285-70.7192L87.7847-70.7192C88.1685-70.7192 88.3604-70.625 88.4615-70.332ZM107.127-48.5449C108.225-48.4438 108.727-49.3432 108.525-50.3926L106.827-58.501C106.579-59.5991 105.777-60.1011 104.777-59.5503C103.979-59.1006 103.229-58.4487 102.727-57.6504C100.925-54.9976 101.727-51.1977 104.379-49.4966C105.129-48.9946 106.126-48.6426 107.127-48.5449ZM29.7739-14.6318C31.439-14.6318 32.8325-16.0288 32.8325-17.6938C32.8325-19.4043 31.4424-20.7525 29.7739-20.7525C28.0635-20.7525 26.7324-19.4077 26.729-17.6938C26.7256-16.0288 28.0601-14.6318 29.7739-14.6318ZM59.69-13.6171L68.3433-13.6171C69.9649-13.6171 70.3897-13.6967 71.523-14.9731L84.7969-29.6074L81.0527-28.7617L69.7622-16.355C69.3296-15.8769 69.0786-15.7725 68.3042-15.7725L59.69-15.7725C59.106-15.7725 58.5913-15.3032 58.5913-14.6738C58.5913-14.0864 59.106-13.6171 59.69-13.6171Z"/>
  </g>
 </g>
</svg>
