<?xml version="1.0" encoding="UTF-8"?>
<!--Generator: Apple Native CoreSVG 341-->
<!DOCTYPE svg
PUBLIC "-//W3C//DTD SVG 1.1//EN"
       "http://www.w3.org/Graphics/SVG/1.1/DTD/svg11.dtd">
<svg version="1.1" xmlns="http://www.w3.org/2000/svg" xmlns:xlink="http://www.w3.org/1999/xlink" viewBox="0 0 3300 2200">
 <!--glyph: "101523", point size: 100.0, font version: "21.0d6e2", template writer version: "138.0.0"-->
 <style>.defaults {-sfsymbols-variable-value-mode:color;-sfsymbols-draw-reverses-motion-groups:true}

.monochrome-0 {-sfsymbols-motion-group:0;-sfsymbols-layer-tags:figure.disc.sports}

.multicolor-0:tintColor {-sfsymbols-motion-group:0;-sfsymbols-layer-tags:figure.disc.sports}

.hierarchical-0:primary {-sfsymbols-motion-group:0;-sfsymbols-layer-tags:figure.disc.sports}

.SFSymbolsPreviewWireframe {fill:none;opacity:1.0;stroke:black;stroke-width:0.5}
</style>
 <g id="Notes">
  <rect height="2200" id="artboard" style="fill:white;opacity:1" width="3300" x="0" y="0"/>
  <line style="fill:none;stroke:black;opacity:1;stroke-width:0.5;" x1="263" x2="3036" y1="292" y2="292"/>
  <text style="stroke:none;fill:black;font-family:sans-serif;font-size:13;font-weight:bold;" transform="matrix(1 0 0 1 263 322)">Weight/Scale Variations</text>
  <text style="stroke:none;fill:black;font-family:sans-serif;font-size:13;text-anchor:middle;" transform="matrix(1 0 0 1 559.711 322)">Ultralight</text>
  <text style="stroke:none;fill:black;font-family:sans-serif;font-size:13;text-anchor:middle;" transform="matrix(1 0 0 1 856.422 322)">Thin</text>
  <text style="stroke:none;fill:black;font-family:sans-serif;font-size:13;text-anchor:middle;" transform="matrix(1 0 0 1 1153.13 322)">Light</text>
  <text style="stroke:none;fill:black;font-family:sans-serif;font-size:13;text-anchor:middle;" transform="matrix(1 0 0 1 1449.84 322)">Regular</text>
  <text style="stroke:none;fill:black;font-family:sans-serif;font-size:13;text-anchor:middle;" transform="matrix(1 0 0 1 1746.56 322)">Medium</text>
  <text style="stroke:none;fill:black;font-family:sans-serif;font-size:13;text-anchor:middle;" transform="matrix(1 0 0 1 2043.27 322)">Semibold</text>
  <text style="stroke:none;fill:black;font-family:sans-serif;font-size:13;text-anchor:middle;" transform="matrix(1 0 0 1 2339.98 322)">Bold</text>
  <text style="stroke:none;fill:black;font-family:sans-serif;font-size:13;text-anchor:middle;" transform="matrix(1 0 0 1 2636.69 322)">Heavy</text>
  <text style="stroke:none;fill:black;font-family:sans-serif;font-size:13;text-anchor:middle;" transform="matrix(1 0 0 1 2933.4 322)">Black</text>
  <line style="fill:none;stroke:black;opacity:1;stroke-width:0.5;" x1="263" x2="3036" y1="1903" y2="1903"/>
  <g transform="matrix(0.2 0 0 0.2 263 1933)">
   <path d="m46.2402 4.15039c21.7773 0 39.4531-17.627 39.4531-39.4043s-17.6758-39.4043-39.4531-39.4043c-21.7285 0-39.4043 17.627-39.4043 39.4043s17.6758 39.4043 39.4043 39.4043Zm0-7.42188c-17.6758 0-31.9336-14.3066-31.9336-31.9824s14.2578-31.9824 31.9336-31.9824 31.9824 14.3066 31.9824 31.9824-14.3066 31.9824-31.9824 31.9824Zm3.61328-17.7734v-28.4668c0-2.24609-1.46484-3.75977-3.71094-3.75977-2.14844 0-3.61328 1.51367-3.61328 3.75977v28.4668c0 2.19727 1.46484 3.71094 3.61328 3.71094 2.24609 0 3.71094-1.51367 3.71094-3.71094Zm-17.8223-10.5957h28.418c2.19727 0 3.71094-1.46484 3.71094-3.61328 0-2.19727-1.51367-3.71094-3.71094-3.71094h-28.418c-2.24609 0-3.75977 1.51367-3.75977 3.71094 0 2.14844 1.51367 3.61328 3.75977 3.61328Z"/>
  </g>
  <g transform="matrix(0.2 0 0 0.2 281.506 1933)">
   <path d="m58.5449 14.5508c27.4902 0 49.8047-22.3145 49.8047-49.8047s-22.3145-49.8047-49.8047-49.8047-49.8047 22.3145-49.8047 49.8047 22.3145 49.8047 49.8047 49.8047Zm0-8.30078c-22.9492 0-41.5039-18.5547-41.5039-41.5039s18.5547-41.5039 41.5039-41.5039 41.5039 18.5547 41.5039 41.5039-18.5547 41.5039-41.5039 41.5039Zm4.05273-23.0957v-36.9141c0-2.49023-1.70898-4.19922-4.15039-4.19922-2.39258 0-4.05273 1.70898-4.05273 4.19922v36.9141c0 2.44141 1.66016 4.15039 4.05273 4.15039 2.44141 0 4.15039-1.66016 4.15039-4.15039Zm-22.5586-14.4043h36.9629c2.44141 0 4.15039-1.61133 4.15039-4.00391 0-2.44141-1.70898-4.15039-4.15039-4.15039h-36.9629c-2.49023 0-4.15039 1.70898-4.15039 4.15039 0 2.39258 1.66016 4.00391 4.15039 4.00391Z"/>
  </g>
  <g transform="matrix(0.2 0 0 0.2 304.924 1933)">
   <path d="m74.8535 28.3203c35.1074 0 63.623-28.4668 63.623-63.5742s-28.5156-63.623-63.623-63.623-63.5742 28.5156-63.5742 63.623 28.4668 63.5742 63.5742 63.5742Zm0-9.08203c-30.127 0-54.4922-24.3652-54.4922-54.4922s24.3652-54.4922 54.4922-54.4922 54.4922 24.3652 54.4922 54.4922-24.3652 54.4922-54.4922 54.4922Zm4.44336-30.3223v-48.4863c0-2.73438-1.85547-4.63867-4.54102-4.63867-2.58789 0-4.44336 1.9043-4.44336 4.63867v48.4863c0 2.68555 1.85547 4.58984 4.44336 4.58984 2.68555 0 4.54102-1.85547 4.54102-4.58984Zm-28.7109-19.7754h48.4863c2.68555 0 4.58984-1.80664 4.58984-4.39453 0-2.73438-1.85547-4.58984-4.58984-4.58984h-48.4863c-2.73438 0-4.58984 1.85547-4.58984 4.58984 0 2.58789 1.85547 4.39453 4.58984 4.39453Z"/>
  </g>
  <text style="stroke:none;fill:black;font-family:sans-serif;font-size:13;font-weight:bold;" transform="matrix(1 0 0 1 263 1953)">Design Variations</text>
  <text style="stroke:none;fill:black;font-family:sans-serif;font-size:13;" transform="matrix(1 0 0 1 263 1971)">Symbols are supported in up to nine weights and three scales.</text>
  <text style="stroke:none;fill:black;font-family:sans-serif;font-size:13;" transform="matrix(1 0 0 1 263 1989)">For optimal layout with text and other symbols, vertically align</text>
  <text style="stroke:none;fill:black;font-family:sans-serif;font-size:13;" transform="matrix(1 0 0 1 263 2007)">symbols with the adjacent text.</text>
  <line style="fill:none;stroke:#00AEEF;stroke-width:0.5;opacity:1.0;" x1="776" x2="776" y1="1919" y2="1933"/>
  <g transform="matrix(0.2 0 0 0.2 776 1933)">
   <path d="m16.5527 0.78125c2.58789 0 3.85742-0.976562 4.78516-3.71094l20.5566-57.5195h0.244141l20.6055 57.5195c0.927734 2.73438 2.19727 3.71094 4.73633 3.71094 2.58789 0 4.24805-1.5625 4.24805-4.00391 0-0.830078-0.146484-1.61133-0.537109-2.63672l-22.9004-60.9863c-1.12305-2.97852-3.125-4.49219-6.25-4.49219-3.02734 0-5.07812 1.46484-6.15234 4.44336l-22.9004 61.084c-0.390625 1.02539-0.537109 1.80664-0.537109 2.63672 0 2.44141 1.5625 3.95508 4.10156 3.95508Zm10.2051-20.9473h30.6641c2.00195 0 3.66211-1.66016 3.66211-3.66211 0-2.05078-1.66016-3.66211-3.66211-3.66211h-30.6641c-2.00195 0-3.66211 1.61133-3.66211 3.66211 0 2.00195 1.66016 3.66211 3.66211 3.66211Z"/>
  </g>
  <line style="fill:none;stroke:#00AEEF;stroke-width:0.5;opacity:1.0;" x1="792.836" x2="792.836" y1="1919" y2="1933"/>
  <text style="stroke:none;fill:black;font-family:sans-serif;font-size:13;font-weight:bold;" transform="matrix(1 0 0 1 776 1953)">Margins</text>
  <text style="stroke:none;fill:black;font-family:sans-serif;font-size:13;" transform="matrix(1 0 0 1 776 1971)">Leading and trailing margins on the left and right side of each symbol</text>
  <text style="stroke:none;fill:black;font-family:sans-serif;font-size:13;" transform="matrix(1 0 0 1 776 1989)">can be adjusted by modifying the x-location of the margin guidelines.</text>
  <text style="stroke:none;fill:black;font-family:sans-serif;font-size:13;" transform="matrix(1 0 0 1 776 2007)">Modifications are automatically applied proportionally to all</text>
  <text style="stroke:none;fill:black;font-family:sans-serif;font-size:13;" transform="matrix(1 0 0 1 776 2025)">scales and weights.</text>
  <g transform="matrix(0.2 0 0 0.2 1289 1933)">
   <path d="m14.209 13.1348 7.86133 7.86133c4.29688 4.39453 9.32617 4.10156 13.8672-1.02539l60.6934-68.2129-4.88281-4.88281-60.2539 67.6758c-1.80664 1.95312-3.4668 2.44141-5.81055 0.0976562l-5.17578-5.12695c-2.29492-2.29492-1.80664-3.95508 0.195312-5.81055l67.4805-62.1582-4.88281-4.83398-68.0664 62.5977c-4.98047 4.58984-5.32227 9.47266-1.02539 13.8184Zm44.873-97.4609c-2.05078 2.00195-2.24609 4.88281-1.07422 6.78711 1.12305 1.80664 3.4668 3.02734 6.5918 2.24609 5.85938-1.66016 12.5977-2.39258 18.8965 0.927734l-2.68555 7.12891c-1.61133 4.00391-0.732422 6.88477 1.70898 9.42383l10.2539 10.3027c2.34375 2.39258 4.54102 2.44141 7.08008 1.95312l4.44336-0.732422 2.58789 2.53906-0.195312 2.24609c-0.0976562 2.29492 0.537109 4.29688 2.7832 6.49414l3.36914 3.32031c2.29492 2.29492 5.51758 2.49023 7.8125 0.195312l12.9883-13.0371c2.29492-2.34375 2.14844-5.37109-0.195312-7.66602l-3.41797-3.41797c-2.19727-2.19727-4.05273-3.02734-6.34766-2.88086l-2.34375 0.244141-2.44141-2.44141 1.02539-4.6875c0.634766-2.73438-0.244141-4.98047-2.88086-7.61719l-11.2793-11.1816c-12.9395-12.8418-35.5957-11.0352-46.6797-0.146484Zm7.08008 2.05078c8.78906-6.39648 25.9766-5.66406 33.6914 1.95312l12.3047 12.207c1.02539 1.02539 1.2207 1.80664 0.927734 3.32031l-1.46484 6.64062 6.73828 6.68945 4.39453-0.244141c1.12305-0.0488281 1.51367 0.0488281 2.34375 0.878906l2.53906 2.49023-10.8398 10.8398-2.49023-2.49023c-0.830078-0.878906-0.976562-1.2207-0.927734-2.39258l0.292969-4.3457-6.68945-6.73828-6.83594 1.17188c-1.41602 0.292969-2.05078 0.195312-3.17383-0.878906l-8.93555-8.88672c-1.07422-1.02539-1.17188-1.70898-0.488281-3.36914l4.58984-11.4746c-6.10352-6.34766-17.041-7.51953-25.5859-4.58984-0.683594 0.244141-0.927734-0.390625-0.390625-0.78125Z"/>
  </g>
  <text style="stroke:none;fill:black;font-family:sans-serif;font-size:13;font-weight:bold;" transform="matrix(1 0 0 1 1289 1953)">Exporting</text>
  <text style="stroke:none;fill:black;font-family:sans-serif;font-size:13;" transform="matrix(1 0 0 1 1289 1971)">Symbols should be outlined when exporting to ensure the</text>
  <text style="stroke:none;fill:black;font-family:sans-serif;font-size:13;" transform="matrix(1 0 0 1 1289 1989)">design is preserved when submitting to Xcode.</text>
  <text id="template-version" style="stroke:none;fill:black;font-family:sans-serif;font-size:13;text-anchor:end;" transform="matrix(1 0 0 1 3036 1933)">Template v.7.0</text>
  <text style="stroke:none;fill:black;font-family:sans-serif;font-size:13;text-anchor:end;" transform="matrix(1 0 0 1 3036 1951)">Requires Xcode 17 or greater</text>
  <text id="descriptive-name" style="stroke:none;fill:black;font-family:sans-serif;font-size:13;text-anchor:end;" transform="matrix(1 0 0 1 3036 1969)">Generated from figure.disc.sports</text>
  <text style="stroke:none;fill:black;font-family:sans-serif;font-size:13;text-anchor:end;" transform="matrix(1 0 0 1 3036 1987)">Typeset at 100.0 points</text>
  <text style="stroke:none;fill:black;font-family:sans-serif;font-size:13;" transform="matrix(1 0 0 1 263 726)">Small</text>
  <text style="stroke:none;fill:black;font-family:sans-serif;font-size:13;" transform="matrix(1 0 0 1 263 1156)">Medium</text>
  <text style="stroke:none;fill:black;font-family:sans-serif;font-size:13;" transform="matrix(1 0 0 1 263 1586)">Large</text>
 </g>
 <g id="Guides">
  <g id="H-reference" style="fill:#27AAE1;stroke:none;" transform="matrix(1 0 0 1 339 696)">
   <path d="M0.993654 0L3.63775 0L29.3281-67.1323L30.0303-67.1323L30.0303-70.459L28.1226-70.459ZM11.6885-24.4799L46.9815-24.4799L46.2315-26.7285L12.4385-26.7285ZM55.1196 0L57.7637 0L30.6382-70.459L29.4326-70.459L29.4326-67.1323Z"/>
  </g>
  <line id="Baseline-S" style="fill:none;stroke:#27AAE1;opacity:1;stroke-width:0.5;" x1="263" x2="3036" y1="696" y2="696"/>
  <line id="Capline-S" style="fill:none;stroke:#27AAE1;opacity:1;stroke-width:0.5;" x1="263" x2="3036" y1="625.541" y2="625.541"/>
  <g id="H-reference" style="fill:#27AAE1;stroke:none;" transform="matrix(1 0 0 1 339 1126)">
   <path d="M0.993654 0L3.63775 0L29.3281-67.1323L30.0303-67.1323L30.0303-70.459L28.1226-70.459ZM11.6885-24.4799L46.9815-24.4799L46.2315-26.7285L12.4385-26.7285ZM55.1196 0L57.7637 0L30.6382-70.459L29.4326-70.459L29.4326-67.1323Z"/>
  </g>
  <line id="Baseline-M" style="fill:none;stroke:#27AAE1;opacity:1;stroke-width:0.5;" x1="263" x2="3036" y1="1126" y2="1126"/>
  <line id="Capline-M" style="fill:none;stroke:#27AAE1;opacity:1;stroke-width:0.5;" x1="263" x2="3036" y1="1055.54" y2="1055.54"/>
  <g id="H-reference" style="fill:#27AAE1;stroke:none;" transform="matrix(1 0 0 1 339 1556)">
   <path d="M0.993654 0L3.63775 0L29.3281-67.1323L30.0303-67.1323L30.0303-70.459L28.1226-70.459ZM11.6885-24.4799L46.9815-24.4799L46.2315-26.7285L12.4385-26.7285ZM55.1196 0L57.7637 0L30.6382-70.459L29.4326-70.459L29.4326-67.1323Z"/>
  </g>
  <line id="Baseline-L" style="fill:none;stroke:#27AAE1;opacity:1;stroke-width:0.5;" x1="263" x2="3036" y1="1556" y2="1556"/>
  <line id="Capline-L" style="fill:none;stroke:#27AAE1;opacity:1;stroke-width:0.5;" x1="263" x2="3036" y1="1485.54" y2="1485.54"/>
  <line id="right-margin-Black-S" style="fill:none;stroke:#00AEEF;stroke-width:0.5;opacity:1.0;" x1="2993.9" x2="2993.9" y1="600.785" y2="720.121"/>
  <line id="left-margin-Black-S" style="fill:none;stroke:#00AEEF;stroke-width:0.5;opacity:1.0;" x1="2872.9" x2="2872.9" y1="600.785" y2="720.121"/>
  <line id="right-margin-Regular-S" style="fill:none;stroke:#00AEEF;stroke-width:0.5;opacity:1.0;" x1="1507.22" x2="1507.22" y1="600.785" y2="720.121"/>
  <line id="left-margin-Regular-S" style="fill:none;stroke:#00AEEF;stroke-width:0.5;opacity:1.0;" x1="1392.47" x2="1392.47" y1="600.785" y2="720.121"/>
  <line id="right-margin-Ultralight-S" style="fill:none;stroke:#00AEEF;stroke-width:0.5;opacity:1.0;" x1="612.77" x2="612.77" y1="600.785" y2="720.121"/>
  <line id="left-margin-Ultralight-S" style="fill:none;stroke:#00AEEF;stroke-width:0.5;opacity:1.0;" x1="506.652" x2="506.652" y1="600.785" y2="720.121"/>
 </g>
 <g id="Symbols">
  <g id="Black-S" transform="matrix(1 0 0 1 2872.9 696)">
   <path class="monochrome-0 multicolor-0:tintColor hierarchical-0:primary SFSymbolsPreviewWireframe" d="M62.1094-63.1836C67.4805-63.1836 71.875-67.5781 71.875-72.9492C71.875-78.3203 67.4805-82.7148 62.1094-82.7148C56.7383-82.7148 52.3438-78.3203 52.3438-72.9492C52.3438-67.5781 56.7383-63.1836 62.1094-63.1836ZM46.5332-8.98438C48.5352-6.98242 51.709-6.98242 53.7109-8.98438L70.459-25.7324C73.3398-28.6133 71.5332-33.8867 67.2363-34.3262L48.3887-36.3281C47.998-36.377 47.8516-36.6699 48.0469-36.9629L54.7363-47.0703C55.127-47.7051 55.5664-47.8027 56.25-47.3145L68.0664-39.4531C68.8477-39.0137 69.873-38.623 70.8496-38.623L89.5508-38.623C92.334-38.623 94.6289-40.918 94.6289-43.7012C94.6289-46.5332 92.334-48.8281 89.5508-48.8281L72.3633-48.8281L36.377-72.8516C35.5957-73.3398 34.5703-73.7305 33.5449-73.7305L14.8438-73.7305C12.0605-73.7305 9.76562-71.3867 9.76562-68.5547C9.76562-65.8203 12.0605-63.4766 14.8438-63.4766L32.0312-63.4766L38.4766-59.2285C39.1113-58.7891 39.209-58.3008 38.7695-57.666L29.1016-43.2129C24.2188-35.9375 28.5156-26.0742 37.9395-25.5371L54.9316-24.6094L46.5332-16.2109C44.4824-14.1602 44.4824-10.9375 46.5332-8.98438ZM30.7129-22.5586L30.7129-10.5957L19.4824 2.39258C17.6758 4.49219 17.8223 7.91016 20.0684 9.76562C22.5586 11.7188 25.6836 11.0352 27.2949 9.13086L39.7461-5.37109C40.625-6.34766 40.8691-7.51953 41.0156-8.44727L43.0176-20.3613L37.6465-20.6543C35.0586-20.8008 32.7637-21.4844 30.7129-22.5586ZM88.5742-55.127C88.5742-51.5625 93.8477-48.9746 99.9023-48.9746C106.006-48.9746 111.23-51.5625 111.23-55.127C111.23-58.6914 106.006-61.2793 99.9023-61.2793C93.8477-61.2793 88.5742-58.6914 88.5742-55.127Z"/>
  </g>
  <g id="Regular-S" transform="matrix(1 0 0 1 1392.47 696)">
   <path class="monochrome-0 multicolor-0:tintColor hierarchical-0:primary SFSymbolsPreviewWireframe" d="M57.1289-61.6699C61.7676-61.6699 65.625-65.4785 65.625-70.166C65.625-74.8047 61.7676-78.6621 57.1289-78.6621C52.4414-78.6621 48.6328-74.8047 48.6328-70.166C48.6328-65.4785 52.4414-61.6699 57.1289-61.6699ZM44.6289-11.2305C46.1914-9.66797 48.6816-9.66797 50.2441-11.2305L66.2598-27.2461C68.457-29.4434 67.041-33.5449 63.7207-33.8867L45.7031-35.791C44.1895-35.9375 43.9941-36.8652 44.6289-37.8418L51.0742-47.5098C51.6602-48.4375 52.8809-48.6816 53.8086-48.0469L65.1367-40.5273C65.7227-40.1367 66.5039-39.8438 67.2852-39.8438L85.1562-39.8438C87.3047-39.8438 89.0625-41.6504 89.0625-43.7988C89.0625-45.9473 87.3047-47.7539 85.1562-47.7539L68.457-47.7539L33.7402-70.8984C33.1055-71.3379 32.4219-71.582 31.5918-71.582L13.7207-71.582C11.5723-71.582 9.76562-69.7754 9.76562-67.5781C9.76562-65.4297 11.5723-63.623 13.7207-63.623L30.4199-63.623L36.8164-59.4238C37.7441-58.7891 37.9883-57.5684 37.3535-56.6406L28.125-42.8223C23.8281-36.377 27.5879-27.7832 35.8398-27.3438L54.1992-26.3672L44.6289-16.8457C43.0664-15.2832 43.0664-12.793 44.6289-11.2305ZM29.834-25.0488L29.834-11.8164L18.8477 0.927734C17.4316 2.53906 17.5781 5.17578 19.2871 6.5918C21.2402 8.1543 23.6816 7.61719 24.9023 6.15234L36.8164-7.71484C37.4512-8.49609 37.6465-9.375 37.793-10.2051L39.9902-23.291L35.6445-23.4863C33.4961-23.584 31.543-24.1699 29.834-25.0488ZM85.1562-54.6875C85.1562-52.002 89.5996-49.7559 95.0684-49.7559C100.488-49.7559 104.98-52.002 104.98-54.6875C104.98-57.4219 100.488-59.668 95.0684-59.668C89.5996-59.668 85.1562-57.4219 85.1562-54.6875Z"/>
  </g>
  <g id="Ultralight-S" transform="matrix(1 0 0 1 506.652 696)">
   <path class="monochrome-0 multicolor-0:tintColor hierarchical-0:primary SFSymbolsPreviewWireframe" d="M52.8604-59.7173C57.0904-59.7173 60.5845-63.208 60.5845-67.4868C60.5845-71.7168 57.0904-75.1656 52.8604-75.1656C48.5816-75.1656 45.0908-71.7168 45.0908-67.4868C45.0908-63.208 48.5816-59.7173 52.8604-59.7173ZM41.4502-13.0015C42.8765-11.5752 45.1397-11.5752 46.5659-13.0015L61.1739-27.564C63.1441-29.5796 61.8643-33.2271 58.8619-33.5689L42.4336-35.3369C41.1016-35.4834 40.9063-36.3203 41.4502-37.2061L47.3052-45.9658C47.8911-46.8027 48.9756-47.0015 49.8125-46.4575L60.1416-39.6646C60.6822-39.3193 61.3726-39.0264 62.1084-39.0264L78.3448-39.0264C80.2662-39.0264 81.9332-40.6514 81.9332-42.5728C81.9332-44.585 80.2662-46.21 78.3448-46.21L63.0987-46.21L31.606-67.2202C31.0166-67.6143 30.333-67.8584 29.5938-67.8584L13.3574-67.8584C11.3906-67.8584 9.76562-66.2334 9.76562-64.2178C9.76562-62.251 11.3906-60.6714 13.3574-60.6714L28.5581-60.6714L34.3643-56.8355C35.2012-56.2915 35.4453-55.1616 34.856-54.3247L26.4448-41.687C22.5567-35.8774 25.9531-28.0557 33.4785-27.6616L50.2032-26.7759L41.4502-18.1172C40.0694-16.6909 40.0694-14.4277 41.4502-13.0015ZM28.0176-26.1841L28.0176-13.542L18.0303-1.93308C16.7505-0.412574 16.897 1.90628 18.4243 3.18606C20.1504 4.61233 22.4102 4.12063 23.54 2.79202L34.3643-9.80369C34.9536-10.5395 35.1035-11.3276 35.25-12.0669L37.3111-24.5171L33.3286-24.7124C31.3164-24.8555 29.5449-25.3506 28.0176-26.1841ZM78.3448-52.5532C78.3448-50.0493 82.4249-48.0303 87.3033-48.0303C92.2691-48.0303 96.3526-50.0493 96.3526-52.5532C96.3526-55.0152 92.2691-57.0342 87.3033-57.0342C82.4249-57.0342 78.3448-55.0152 78.3448-52.5532Z"/>
  </g>
 </g>
</svg>
