<?xml version="1.0" encoding="UTF-8"?>
<!--Generator: Apple Native CoreSVG 341-->
<!DOCTYPE svg
PUBLIC "-//W3C//DTD SVG 1.1//EN"
       "http://www.w3.org/Graphics/SVG/1.1/DTD/svg11.dtd">
<svg version="1.1" xmlns="http://www.w3.org/2000/svg" xmlns:xlink="http://www.w3.org/1999/xlink" viewBox="0 0 3300 2200">
 <!--glyph: "101524", point size: 100.0, font version: "21.0d6e2", template writer version: "138.0.0"-->
 <style>.defaults {-sfsymbols-variable-value-mode:color;-sfsymbols-draw-reverses-motion-groups:true}

.monochrome-0 {-sfsymbols-motion-group:0;-sfsymbols-layer-tags:figure.skiing.downhill}

.multicolor-0:tintColor {-sfsymbols-motion-group:0;-sfsymbols-layer-tags:figure.skiing.downhill}

.hierarchical-0:primary {-sfsymbols-motion-group:0;-sfsymbols-layer-tags:figure.skiing.downhill}

.SFSymbolsPreviewWireframe {fill:none;opacity:1.0;stroke:black;stroke-width:0.5}
</style>
 <g id="Notes">
  <rect height="2200" id="artboard" style="fill:white;opacity:1" width="3300" x="0" y="0"/>
  <line style="fill:none;stroke:black;opacity:1;stroke-width:0.5;" x1="263" x2="3036" y1="292" y2="292"/>
  <text style="stroke:none;fill:black;font-family:sans-serif;font-size:13;font-weight:bold;" transform="matrix(1 0 0 1 263 322)">Weight/Scale Variations</text>
  <text style="stroke:none;fill:black;font-family:sans-serif;font-size:13;text-anchor:middle;" transform="matrix(1 0 0 1 559.711 322)">Ultralight</text>
  <text style="stroke:none;fill:black;font-family:sans-serif;font-size:13;text-anchor:middle;" transform="matrix(1 0 0 1 856.422 322)">Thin</text>
  <text style="stroke:none;fill:black;font-family:sans-serif;font-size:13;text-anchor:middle;" transform="matrix(1 0 0 1 1153.13 322)">Light</text>
  <text style="stroke:none;fill:black;font-family:sans-serif;font-size:13;text-anchor:middle;" transform="matrix(1 0 0 1 1449.84 322)">Regular</text>
  <text style="stroke:none;fill:black;font-family:sans-serif;font-size:13;text-anchor:middle;" transform="matrix(1 0 0 1 1746.56 322)">Medium</text>
  <text style="stroke:none;fill:black;font-family:sans-serif;font-size:13;text-anchor:middle;" transform="matrix(1 0 0 1 2043.27 322)">Semibold</text>
  <text style="stroke:none;fill:black;font-family:sans-serif;font-size:13;text-anchor:middle;" transform="matrix(1 0 0 1 2339.98 322)">Bold</text>
  <text style="stroke:none;fill:black;font-family:sans-serif;font-size:13;text-anchor:middle;" transform="matrix(1 0 0 1 2636.69 322)">Heavy</text>
  <text style="stroke:none;fill:black;font-family:sans-serif;font-size:13;text-anchor:middle;" transform="matrix(1 0 0 1 2933.4 322)">Black</text>
  <line style="fill:none;stroke:black;opacity:1;stroke-width:0.5;" x1="263" x2="3036" y1="1903" y2="1903"/>
  <g transform="matrix(0.2 0 0 0.2 263 1933)">
   <path d="m46.2402 4.15039c21.7773 0 39.4531-17.627 39.4531-39.4043s-17.6758-39.4043-39.4531-39.4043c-21.7285 0-39.4043 17.627-39.4043 39.4043s17.6758 39.4043 39.4043 39.4043Zm0-7.42188c-17.6758 0-31.9336-14.3066-31.9336-31.9824s14.2578-31.9824 31.9336-31.9824 31.9824 14.3066 31.9824 31.9824-14.3066 31.9824-31.9824 31.9824Zm3.61328-17.7734v-28.4668c0-2.24609-1.46484-3.75977-3.71094-3.75977-2.14844 0-3.61328 1.51367-3.61328 3.75977v28.4668c0 2.19727 1.46484 3.71094 3.61328 3.71094 2.24609 0 3.71094-1.51367 3.71094-3.71094Zm-17.8223-10.5957h28.418c2.19727 0 3.71094-1.46484 3.71094-3.61328 0-2.19727-1.51367-3.71094-3.71094-3.71094h-28.418c-2.24609 0-3.75977 1.51367-3.75977 3.71094 0 2.14844 1.51367 3.61328 3.75977 3.61328Z"/>
  </g>
  <g transform="matrix(0.2 0 0 0.2 281.506 1933)">
   <path d="m58.5449 14.5508c27.4902 0 49.8047-22.3145 49.8047-49.8047s-22.3145-49.8047-49.8047-49.8047-49.8047 22.3145-49.8047 49.8047 22.3145 49.8047 49.8047 49.8047Zm0-8.30078c-22.9492 0-41.5039-18.5547-41.5039-41.5039s18.5547-41.5039 41.5039-41.5039 41.5039 18.5547 41.5039 41.5039-18.5547 41.5039-41.5039 41.5039Zm4.05273-23.0957v-36.9141c0-2.49023-1.70898-4.19922-4.15039-4.19922-2.39258 0-4.05273 1.70898-4.05273 4.19922v36.9141c0 2.44141 1.66016 4.15039 4.05273 4.15039 2.44141 0 4.15039-1.66016 4.15039-4.15039Zm-22.5586-14.4043h36.9629c2.44141 0 4.15039-1.61133 4.15039-4.00391 0-2.44141-1.70898-4.15039-4.15039-4.15039h-36.9629c-2.49023 0-4.15039 1.70898-4.15039 4.15039 0 2.39258 1.66016 4.00391 4.15039 4.00391Z"/>
  </g>
  <g transform="matrix(0.2 0 0 0.2 304.924 1933)">
   <path d="m74.8535 28.3203c35.1074 0 63.623-28.4668 63.623-63.5742s-28.5156-63.623-63.623-63.623-63.5742 28.5156-63.5742 63.623 28.4668 63.5742 63.5742 63.5742Zm0-9.08203c-30.127 0-54.4922-24.3652-54.4922-54.4922s24.3652-54.4922 54.4922-54.4922 54.4922 24.3652 54.4922 54.4922-24.3652 54.4922-54.4922 54.4922Zm4.44336-30.3223v-48.4863c0-2.73438-1.85547-4.63867-4.54102-4.63867-2.58789 0-4.44336 1.9043-4.44336 4.63867v48.4863c0 2.68555 1.85547 4.58984 4.44336 4.58984 2.68555 0 4.54102-1.85547 4.54102-4.58984Zm-28.7109-19.7754h48.4863c2.68555 0 4.58984-1.80664 4.58984-4.39453 0-2.73438-1.85547-4.58984-4.58984-4.58984h-48.4863c-2.73438 0-4.58984 1.85547-4.58984 4.58984 0 2.58789 1.85547 4.39453 4.58984 4.39453Z"/>
  </g>
  <text style="stroke:none;fill:black;font-family:sans-serif;font-size:13;font-weight:bold;" transform="matrix(1 0 0 1 263 1953)">Design Variations</text>
  <text style="stroke:none;fill:black;font-family:sans-serif;font-size:13;" transform="matrix(1 0 0 1 263 1971)">Symbols are supported in up to nine weights and three scales.</text>
  <text style="stroke:none;fill:black;font-family:sans-serif;font-size:13;" transform="matrix(1 0 0 1 263 1989)">For optimal layout with text and other symbols, vertically align</text>
  <text style="stroke:none;fill:black;font-family:sans-serif;font-size:13;" transform="matrix(1 0 0 1 263 2007)">symbols with the adjacent text.</text>
  <line style="fill:none;stroke:#00AEEF;stroke-width:0.5;opacity:1.0;" x1="776" x2="776" y1="1919" y2="1933"/>
  <g transform="matrix(0.2 0 0 0.2 776 1933)">
   <path d="m16.5527 0.78125c2.58789 0 3.85742-0.976562 4.78516-3.71094l20.5566-57.5195h0.244141l20.6055 57.5195c0.927734 2.73438 2.19727 3.71094 4.73633 3.71094 2.58789 0 4.24805-1.5625 4.24805-4.00391 0-0.830078-0.146484-1.61133-0.537109-2.63672l-22.9004-60.9863c-1.12305-2.97852-3.125-4.49219-6.25-4.49219-3.02734 0-5.07812 1.46484-6.15234 4.44336l-22.9004 61.084c-0.390625 1.02539-0.537109 1.80664-0.537109 2.63672 0 2.44141 1.5625 3.95508 4.10156 3.95508Zm10.2051-20.9473h30.6641c2.00195 0 3.66211-1.66016 3.66211-3.66211 0-2.05078-1.66016-3.66211-3.66211-3.66211h-30.6641c-2.00195 0-3.66211 1.61133-3.66211 3.66211 0 2.00195 1.66016 3.66211 3.66211 3.66211Z"/>
  </g>
  <line style="fill:none;stroke:#00AEEF;stroke-width:0.5;opacity:1.0;" x1="792.836" x2="792.836" y1="1919" y2="1933"/>
  <text style="stroke:none;fill:black;font-family:sans-serif;font-size:13;font-weight:bold;" transform="matrix(1 0 0 1 776 1953)">Margins</text>
  <text style="stroke:none;fill:black;font-family:sans-serif;font-size:13;" transform="matrix(1 0 0 1 776 1971)">Leading and trailing margins on the left and right side of each symbol</text>
  <text style="stroke:none;fill:black;font-family:sans-serif;font-size:13;" transform="matrix(1 0 0 1 776 1989)">can be adjusted by modifying the x-location of the margin guidelines.</text>
  <text style="stroke:none;fill:black;font-family:sans-serif;font-size:13;" transform="matrix(1 0 0 1 776 2007)">Modifications are automatically applied proportionally to all</text>
  <text style="stroke:none;fill:black;font-family:sans-serif;font-size:13;" transform="matrix(1 0 0 1 776 2025)">scales and weights.</text>
  <g transform="matrix(0.2 0 0 0.2 1289 1933)">
   <path d="m14.209 13.1348 7.86133 7.86133c4.29688 4.39453 9.32617 4.10156 13.8672-1.02539l60.6934-68.2129-4.88281-4.88281-60.2539 67.6758c-1.80664 1.95312-3.4668 2.44141-5.81055 0.0976562l-5.17578-5.12695c-2.29492-2.29492-1.80664-3.95508 0.195312-5.81055l67.4805-62.1582-4.88281-4.83398-68.0664 62.5977c-4.98047 4.58984-5.32227 9.47266-1.02539 13.8184Zm44.873-97.4609c-2.05078 2.00195-2.24609 4.88281-1.07422 6.78711 1.12305 1.80664 3.4668 3.02734 6.5918 2.24609 5.85938-1.66016 12.5977-2.39258 18.8965 0.927734l-2.68555 7.12891c-1.61133 4.00391-0.732422 6.88477 1.70898 9.42383l10.2539 10.3027c2.34375 2.39258 4.54102 2.44141 7.08008 1.95312l4.44336-0.732422 2.58789 2.53906-0.195312 2.24609c-0.0976562 2.29492 0.537109 4.29688 2.7832 6.49414l3.36914 3.32031c2.29492 2.29492 5.51758 2.49023 7.8125 0.195312l12.9883-13.0371c2.29492-2.34375 2.14844-5.37109-0.195312-7.66602l-3.41797-3.41797c-2.19727-2.19727-4.05273-3.02734-6.34766-2.88086l-2.34375 0.244141-2.44141-2.44141 1.02539-4.6875c0.634766-2.73438-0.244141-4.98047-2.88086-7.61719l-11.2793-11.1816c-12.9395-12.8418-35.5957-11.0352-46.6797-0.146484Zm7.08008 2.05078c8.78906-6.39648 25.9766-5.66406 33.6914 1.95312l12.3047 12.207c1.02539 1.02539 1.2207 1.80664 0.927734 3.32031l-1.46484 6.64062 6.73828 6.68945 4.39453-0.244141c1.12305-0.0488281 1.51367 0.0488281 2.34375 0.878906l2.53906 2.49023-10.8398 10.8398-2.49023-2.49023c-0.830078-0.878906-0.976562-1.2207-0.927734-2.39258l0.292969-4.3457-6.68945-6.73828-6.83594 1.17188c-1.41602 0.292969-2.05078 0.195312-3.17383-0.878906l-8.93555-8.88672c-1.07422-1.02539-1.17188-1.70898-0.488281-3.36914l4.58984-11.4746c-6.10352-6.34766-17.041-7.51953-25.5859-4.58984-0.683594 0.244141-0.927734-0.390625-0.390625-0.78125Z"/>
  </g>
  <text style="stroke:none;fill:black;font-family:sans-serif;font-size:13;font-weight:bold;" transform="matrix(1 0 0 1 1289 1953)">Exporting</text>
  <text style="stroke:none;fill:black;font-family:sans-serif;font-size:13;" transform="matrix(1 0 0 1 1289 1971)">Symbols should be outlined when exporting to ensure the</text>
  <text style="stroke:none;fill:black;font-family:sans-serif;font-size:13;" transform="matrix(1 0 0 1 1289 1989)">design is preserved when submitting to Xcode.</text>
  <text id="template-version" style="stroke:none;fill:black;font-family:sans-serif;font-size:13;text-anchor:end;" transform="matrix(1 0 0 1 3036 1933)">Template v.7.0</text>
  <text style="stroke:none;fill:black;font-family:sans-serif;font-size:13;text-anchor:end;" transform="matrix(1 0 0 1 3036 1951)">Requires Xcode 17 or greater</text>
  <text id="descriptive-name" style="stroke:none;fill:black;font-family:sans-serif;font-size:13;text-anchor:end;" transform="matrix(1 0 0 1 3036 1969)">Generated from figure.skiing.downhill</text>
  <text style="stroke:none;fill:black;font-family:sans-serif;font-size:13;text-anchor:end;" transform="matrix(1 0 0 1 3036 1987)">Typeset at 100.0 points</text>
  <text style="stroke:none;fill:black;font-family:sans-serif;font-size:13;" transform="matrix(1 0 0 1 263 726)">Small</text>
  <text style="stroke:none;fill:black;font-family:sans-serif;font-size:13;" transform="matrix(1 0 0 1 263 1156)">Medium</text>
  <text style="stroke:none;fill:black;font-family:sans-serif;font-size:13;" transform="matrix(1 0 0 1 263 1586)">Large</text>
 </g>
 <g id="Guides">
  <g id="H-reference" style="fill:#27AAE1;stroke:none;" transform="matrix(1 0 0 1 339 696)">
   <path d="M0.993654 0L3.63775 0L29.3281-67.1323L30.0303-67.1323L30.0303-70.459L28.1226-70.459ZM11.6885-24.4799L46.9815-24.4799L46.2315-26.7285L12.4385-26.7285ZM55.1196 0L57.7637 0L30.6382-70.459L29.4326-70.459L29.4326-67.1323Z"/>
  </g>
  <line id="Baseline-S" style="fill:none;stroke:#27AAE1;opacity:1;stroke-width:0.5;" x1="263" x2="3036" y1="696" y2="696"/>
  <line id="Capline-S" style="fill:none;stroke:#27AAE1;opacity:1;stroke-width:0.5;" x1="263" x2="3036" y1="625.541" y2="625.541"/>
  <g id="H-reference" style="fill:#27AAE1;stroke:none;" transform="matrix(1 0 0 1 339 1126)">
   <path d="M0.993654 0L3.63775 0L29.3281-67.1323L30.0303-67.1323L30.0303-70.459L28.1226-70.459ZM11.6885-24.4799L46.9815-24.4799L46.2315-26.7285L12.4385-26.7285ZM55.1196 0L57.7637 0L30.6382-70.459L29.4326-70.459L29.4326-67.1323Z"/>
  </g>
  <line id="Baseline-M" style="fill:none;stroke:#27AAE1;opacity:1;stroke-width:0.5;" x1="263" x2="3036" y1="1126" y2="1126"/>
  <line id="Capline-M" style="fill:none;stroke:#27AAE1;opacity:1;stroke-width:0.5;" x1="263" x2="3036" y1="1055.54" y2="1055.54"/>
  <g id="H-reference" style="fill:#27AAE1;stroke:none;" transform="matrix(1 0 0 1 339 1556)">
   <path d="M0.993654 0L3.63775 0L29.3281-67.1323L30.0303-67.1323L30.0303-70.459L28.1226-70.459ZM11.6885-24.4799L46.9815-24.4799L46.2315-26.7285L12.4385-26.7285ZM55.1196 0L57.7637 0L30.6382-70.459L29.4326-70.459L29.4326-67.1323Z"/>
  </g>
  <line id="Baseline-L" style="fill:none;stroke:#27AAE1;opacity:1;stroke-width:0.5;" x1="263" x2="3036" y1="1556" y2="1556"/>
  <line id="Capline-L" style="fill:none;stroke:#27AAE1;opacity:1;stroke-width:0.5;" x1="263" x2="3036" y1="1485.54" y2="1485.54"/>
  <line id="right-margin-Black-S" style="fill:none;stroke:#00AEEF;stroke-width:0.5;opacity:1.0;" x1="2988.67" x2="2988.67" y1="600.785" y2="720.121"/>
  <line id="left-margin-Black-S" style="fill:none;stroke:#00AEEF;stroke-width:0.5;opacity:1.0;" x1="2878.13" x2="2878.13" y1="600.785" y2="720.121"/>
  <line id="right-margin-Regular-S" style="fill:none;stroke:#00AEEF;stroke-width:0.5;opacity:1.0;" x1="1501.99" x2="1501.99" y1="600.785" y2="720.121"/>
  <line id="left-margin-Regular-S" style="fill:none;stroke:#00AEEF;stroke-width:0.5;opacity:1.0;" x1="1397.7" x2="1397.7" y1="600.785" y2="720.121"/>
  <line id="right-margin-Ultralight-S" style="fill:none;stroke:#00AEEF;stroke-width:0.5;opacity:1.0;" x1="607.478" x2="607.478" y1="600.785" y2="720.121"/>
  <line id="left-margin-Ultralight-S" style="fill:none;stroke:#00AEEF;stroke-width:0.5;opacity:1.0;" x1="511.945" x2="511.945" y1="600.785" y2="720.121"/>
 </g>
 <g id="Symbols">
  <g id="Black-S" transform="matrix(1 0 0 1 2878.13 696)">
   <path class="monochrome-0 multicolor-0:tintColor hierarchical-0:primary SFSymbolsPreviewWireframe" d="M78.5156-67.9688C83.8867-67.9688 88.2812-72.3633 88.2812-77.7344C88.2812-83.1055 83.8867-87.5 78.5156-87.5C73.1445-87.5 68.75-83.1055 68.75-77.7344C68.75-72.3633 73.1445-67.9688 78.5156-67.9688ZM62.3535-9.27734C65.2344-9.27734 67.5293-11.5723 67.5293-14.4043L67.5293-34.0332C67.5293-35.3516 66.9922-36.7188 66.0645-37.6465L55.957-47.6562L64.8926-56.6406C65.1855-56.9336 65.4785-56.9824 65.7715-56.6406L72.4121-49.9023C73.3398-48.9258 74.7559-48.4375 76.0254-48.4375L95.6543-48.4375C98.4863-48.4375 100.781-50.6836 100.781-53.5645C100.781-56.3965 98.4863-58.6914 95.6543-58.6914L78.1738-58.6914L63.8672-73.0469C61.8652-75.0488 58.9355-76.2695 56.0547-76.2695L40.7227-76.2695C35.6445-76.2695 34.082-70.6055 37.2559-67.4316L43.4082-61.3281L38.623-56.6406C34.7656-52.8809 34.8145-46.4844 38.623-42.6758L45.5566-35.791L45.5566-13.4277C45.5566-10.6445 47.8027-8.30078 50.6836-8.30078C53.5156-8.30078 55.8594-10.6445 55.8594-13.4277L55.8594-33.252L57.2266-31.8848L57.2266-14.4043C57.2266-11.5723 59.5703-9.27734 62.3535-9.27734ZM13.6719-54.8828L54.4922-54.8828L54.4922-62.6953L13.6719-62.6953C11.5234-62.6953 9.76562-60.9375 9.76562-58.7891C9.76562-56.6406 11.5234-54.8828 13.6719-54.8828ZM96.875-8.83789C99.0234-8.83789 100.781-10.5957 100.781-12.7441L100.781-53.5645L92.9688-53.5645L92.9688-12.7441C92.9688-10.5957 94.7266-8.83789 96.875-8.83789ZM78.3203 16.9434C80.4688 16.9434 82.2266 15.1855 82.2266 13.0371C82.2266 10.8887 80.4688 9.13086 78.3203 9.13086C76.0254 9.13086 75.1465 8.54492 73.3398 6.78711L29.9805-36.5234C28.4668-38.0371 25.9277-38.0859 24.4629-36.5234C22.9492-35.0586 22.998-32.5195 24.4629-31.0547L68.5547 13.0859C71.2402 15.8203 74.6094 16.9434 78.3203 16.9434ZM88.8672 14.7949C91.0156 14.7949 92.7734 13.0371 92.7734 10.8887C92.7734 8.74023 91.0156 6.98242 88.8672 6.98242C86.5723 6.98242 85.6934 6.39648 83.8867 4.63867L40.5273-38.6719C39.0137-40.1855 36.4746-40.2344 35.0098-38.6719C33.4961-37.207 33.5449-34.668 35.0098-33.2031L79.1016 10.9375C81.7871 13.6719 85.1562 14.7949 88.8672 14.7949Z"/>
  </g>
  <g id="Regular-S" transform="matrix(1 0 0 1 1397.7 696)">
   <path class="monochrome-0 multicolor-0:tintColor hierarchical-0:primary SFSymbolsPreviewWireframe" d="M73.6816-65.918C78.3691-65.918 82.1777-69.7754 82.1777-74.4141C82.1777-79.1016 78.3691-82.959 73.6816-82.959C69.043-82.959 65.1855-79.1016 65.1855-74.4141C65.1855-69.7754 69.043-65.918 73.6816-65.918ZM58.6914-11.6211C60.9375-11.6211 62.6953-13.3789 62.6953-15.5762L62.6953-34.3262C62.6953-35.4004 62.3047-36.4746 61.5723-37.1582L51.2695-47.4121L60.4492-56.6406C61.0352-57.2266 62.0117-57.2266 62.5977-56.6406L68.9941-50.1953C69.6777-49.4629 70.752-49.0723 71.7773-49.0723L90.5273-49.0723C92.7734-49.0723 94.5312-50.7812 94.5312-53.0273C94.5312-55.2246 92.7734-57.0312 90.5273-57.0312L73.4375-57.0312L59.4727-70.9961C57.7148-72.8027 55.1758-73.8281 52.6855-73.8281L38.0371-73.8281C34.0332-73.8281 32.8613-69.4336 35.3516-66.9922L41.8945-60.4492L36.6699-55.3223C33.3496-52.0508 33.3496-46.5332 36.6699-43.2617L43.5547-36.4258L43.5547-14.6484C43.5547-12.5 45.3125-10.6934 47.5586-10.6934C49.707-10.6934 51.5137-12.5 51.5137-14.6484L51.5137-35.8887L54.7363-32.666L54.7363-15.5762C54.7363-13.3789 56.543-11.6211 58.6914-11.6211ZM12.1094-55.7129L49.9512-55.7129L49.9512-60.4492L12.1094-60.4492C10.8398-60.4492 9.76562-59.375 9.76562-58.0566C9.76562-56.7871 10.8398-55.7129 12.1094-55.7129ZM92.1387-13.3301C93.4082-13.3301 94.4824-14.4043 94.4824-15.6738L94.4824-53.0273L89.7461-53.0273L89.7461-15.6738C89.7461-14.4043 90.8203-13.3301 92.1387-13.3301ZM73.7793 13.0859C75.0977 13.0859 76.123 12.0605 76.123 10.6934C76.123 9.375 75.0977 8.34961 73.7793 8.34961C71.1426 8.34961 70.4102 7.91016 68.2129 5.71289L26.7578-35.7422C25.8301-36.6699 24.3164-36.6699 23.4375-35.7422C22.5098-34.8145 22.5098-33.3008 23.4375-32.4219L65.5762 9.76562C67.9199 12.1094 70.7031 13.0859 73.7793 13.0859ZM83.8379 10.9863C85.1562 10.9863 86.1816 9.96094 86.1816 8.64258C86.1816 7.32422 85.1562 6.25 83.8379 6.25C81.2012 6.25 80.4688 5.81055 78.2715 3.61328L36.8164-37.793C35.8887-38.7695 34.375-38.7695 33.4473-37.793C32.5684-36.9141 32.5684-35.4004 33.4473-34.5215L75.6348 7.66602C77.9785 10.0098 80.7617 10.9863 83.8379 10.9863Z"/>
  </g>
  <g id="Ultralight-S" transform="matrix(1 0 0 1 511.945 696)">
   <path class="monochrome-0 multicolor-0:tintColor hierarchical-0:primary SFSymbolsPreviewWireframe" d="M67.2789-63.7383C71.5123-63.7383 75.003-67.2324 75.003-71.5078C75.003-75.6958 71.5123-79.19 67.2789-79.19C63.0035-79.19 59.5093-75.6958 59.5093-71.5078C59.5093-67.2324 63.0035-63.7383 67.2789-63.7383ZM53.1514-13.0288C55.2159-13.0288 56.792-14.6504 56.792-16.666L56.792-33.6904C56.792-34.6738 56.4468-35.6572 55.8052-36.25L46.4561-45.5503L54.773-53.9614C55.3135-54.502 56.1539-54.502 56.6944-53.9614L62.5459-48.1065C63.2295-47.4194 64.1675-47.0742 65.1021-47.0742L82.1265-47.0742C84.1456-47.0742 85.7672-48.647 85.7672-50.7114C85.7672-52.6817 84.1456-54.3067 82.1265-54.3067L66.5806-54.3067L53.8873-67.0454C52.2657-68.6704 49.9991-69.605 47.7359-69.605L34.3589-69.605C30.7183-69.605 29.6826-65.6192 31.9458-63.3594L37.8985-57.4522L33.128-52.7793C30.1255-49.8257 30.1255-44.7622 33.128-41.8086L39.4224-35.6084L39.4224-15.8291C39.4224-13.8169 40.9986-12.1919 43.0176-12.1919C45.0298-12.1919 46.6548-13.8169 46.6548-15.8291L46.6548-35.1167L49.605-32.2119L49.605-16.666C49.605-14.6504 51.1846-13.0288 53.1514-13.0288ZM10.7925-54.8955L44.7745-54.8955L44.7745-56.9527L10.7925-56.9527C10.2495-56.9527 9.76562-56.5142 9.76562-55.9224C9.76562-55.334 10.2495-54.8955 10.7925-54.8955ZM84.2374-15.6914C84.8258-15.6914 85.3096-16.1753 85.3096-16.7637L85.3096-50.2573L83.2071-50.2573L83.2071-16.7637C83.2071-16.1753 83.691-15.6914 84.2374-15.6914ZM66.1959 8.77201C66.7877 8.77201 67.2681 8.29153 67.2681 7.74172C67.2681 7.14992 66.7877 6.66945 66.1959 6.66945C63.5591 6.66945 62.7359 6.22999 60.4932 3.98732L22.8072-33.6987C22.2881-34.2178 21.7735-34.2178 21.3486-33.7442C20.875-33.2705 20.875-32.7559 21.3486-32.2856L59.0372 5.40628C61.6534 8.02249 63.8008 8.77201 66.1959 8.77201ZM75.3463 6.85404C75.9381 6.85404 76.3731 6.37356 76.3731 5.82717C76.3731 5.23537 75.9381 4.75148 75.3463 4.75148C72.7095 4.75148 71.8863 4.31202 69.6436 2.06935L31.9576-35.6133C31.4385-36.1358 30.8784-36.1358 30.4956-35.6587C30.0254-35.1885 30.0254-34.6738 30.4956-34.2036L68.1421 3.48831C70.8038 6.10452 72.9058 6.85404 75.3463 6.85404Z"/>
  </g>
 </g>
</svg>
